<?xml version="1.0" encoding="utf-8"?>
<!-- Generator: Adobe Illustrator 16.0.0, SVG Export Plug-In . SVG Version: 6.00 Build 0)  -->
<!DOCTYPE svg PUBLIC "-//W3C//DTD SVG 1.1//EN" "http://www.w3.org/Graphics/SVG/1.1/DTD/svg11.dtd">
<svg version="1.1"
	 id="svg4" xmlns:dc="http://purl.org/dc/elements/1.1/" xmlns:cc="http://creativecommons.org/ns#" xmlns:rdf="http://www.w3.org/1999/02/22-rdf-syntax-ns#" xmlns:svg="http://www.w3.org/2000/svg" xmlns:sodipodi="http://sodipodi.sourceforge.net/DTD/sodipodi-0.dtd" xmlns:inkscape="http://www.inkscape.org/namespaces/inkscape" inkscape:version="0.92.2 (5c3e80d, 2017-08-06)" sodipodi:docname="audi-logo.svg"
	 xmlns="http://www.w3.org/2000/svg" xmlns:xlink="http://www.w3.org/1999/xlink" x="0px" y="0px" width="200px" height="200px"
	 viewBox="0 0 200 200" enable-background="new 0 0 200 200" xml:space="preserve">
<path id="path2" inkscape:export-ydpi="109.3394" inkscape:export-xdpi="109.3394" inkscape:export-filename="G:\Users\suitedoalex\sites\audi-logo-3.png" d="
	M163.916,64.869c-7.934,0-15.299,2.607-21.305,7.026c-6.006-4.419-13.373-7.026-21.307-7.026S106.006,67.476,100,71.895
	c-6.006-4.419-13.259-7.026-21.305-7.026c-7.934,0-15.3,2.607-21.307,7.026c-5.894-4.419-13.26-7.026-21.305-7.026
	C16.479,64.869,0.5,80.621,0.5,100c0,19.379,15.979,35.131,35.584,35.131c7.932,0,15.299-2.605,21.305-7.025
	c6.007,4.42,13.373,7.025,21.307,7.025c7.932,0,15.299-2.605,21.305-7.025c5.893,4.42,13.26,7.025,21.305,7.025
	c7.934,0,15.301-2.605,21.307-7.025c5.893,4.42,13.26,7.025,21.305,7.025c19.605,0,35.584-15.752,35.584-35.131
	C199.5,80.621,183.523,64.869,163.916,64.869z M142.611,118.135c-4.307-4.875-6.914-11.221-6.914-18.133
	c0-6.913,2.607-13.26,6.914-18.133c4.307,4.873,6.914,11.22,6.914,18.133C149.525,106.914,146.918,113.26,142.611,118.135
	L142.611,118.135z M100.002,118.135c-4.308-4.875-6.915-11.221-6.915-18.133c0-6.913,2.606-13.26,6.915-18.133
	c4.307,4.873,6.912,11.22,6.912,18.133C106.914,106.914,104.309,113.26,100.002,118.135z M57.39,118.135
	c-4.307-4.875-6.912-11.221-6.912-18.133c0-6.913,2.605-13.26,6.912-18.133c4.307,4.873,6.914,11.22,6.914,18.133
	C64.417,106.914,61.696,113.26,57.39,118.135z M7.867,100.001c0-15.299,12.692-27.766,28.219-27.766c5.778,0,11.219,1.7,15.752,4.76
	c-5.439,6.119-8.727,14.166-8.727,23.004c0,8.84,3.286,16.885,8.727,23.004c-4.533,2.947-9.859,4.76-15.752,4.76
	C20.56,127.764,7.867,115.301,7.867,100.001z M62.944,123.006c5.438-6.119,8.728-14.164,8.728-23.004
	c0-8.84-3.287-16.885-8.728-23.006c4.533-2.945,9.858-4.758,15.753-4.758c5.893,0,11.219,1.699,15.752,4.758
	c-5.439,6.121-8.84,14.166-8.84,23.006c0,8.84,3.287,16.885,8.84,23.004c-4.533,2.945-9.859,4.76-15.752,4.76
	C72.916,127.764,67.477,125.951,62.944,123.006z M105.555,123.006c5.438-6.119,8.84-14.164,8.84-23.004
	c0-8.84-3.287-16.885-8.84-23.006c4.531-2.945,9.857-4.758,15.752-4.758c5.893,0,11.221,1.699,15.752,4.758
	c-5.439,6.121-8.838,14.166-8.838,23.006c0,8.84,3.285,16.885,8.838,23.004c-4.531,2.945-9.859,4.76-15.752,4.76
	C115.412,127.764,110.086,125.951,105.555,123.006z M163.916,127.764c-5.777,0-11.219-1.699-15.752-4.76
	c5.439-6.119,8.84-14.164,8.84-23.004c0-8.838-3.285-16.885-8.84-23.004c4.533-2.946,9.859-4.76,15.752-4.76
	c15.525,0,28.219,12.465,28.219,27.766C192.135,115.301,179.443,127.764,163.916,127.764z"/>
</svg>
