<?xml version="1.0" encoding="utf-8"?>
<!-- Generator: Adobe Illustrator 16.0.0, SVG Export Plug-In . SVG Version: 6.00 Build 0)  -->
<!DOCTYPE svg PUBLIC "-//W3C//DTD SVG 1.1//EN" "http://www.w3.org/Graphics/SVG/1.1/DTD/svg11.dtd">
<svg version="1.1"
	 id="svg4" xmlns:dc="http://purl.org/dc/elements/1.1/" xmlns:cc="http://creativecommons.org/ns#" xmlns:rdf="http://www.w3.org/1999/02/22-rdf-syntax-ns#" xmlns:svg="http://www.w3.org/2000/svg" xmlns:sodipodi="http://sodipodi.sourceforge.net/DTD/sodipodi-0.dtd" xmlns:inkscape="http://www.inkscape.org/namespaces/inkscape" inkscape:version="0.92.2 (5c3e80d, 2017-08-06)" sodipodi:docname="audi-logo.svg"
	 xmlns="http://www.w3.org/2000/svg" xmlns:xlink="http://www.w3.org/1999/xlink" x="0px" y="0px" width="200px" height="200px"
	 viewBox="197.64 320.945 200 200" enable-background="new 197.64 320.945 200 200" xml:space="preserve">
<path id="path2" inkscape:export-ydpi="109.3394" inkscape:export-xdpi="109.3394" inkscape:export-filename="G:\Users\suitedoalex\sites\audi-logo-3.png" d="
	M361.556,385.813c-7.934,0-15.299,2.607-21.306,7.026c-6.006-4.419-13.372-7.026-21.306-7.026c-7.933,0-15.298,2.607-21.305,7.026
	c-6.006-4.419-13.259-7.026-21.305-7.026c-7.934,0-15.3,2.607-21.306,7.026c-5.894-4.419-13.26-7.026-21.306-7.026
	c-19.604,0-35.584,15.752-35.584,35.131s15.979,35.131,35.584,35.131c7.933,0,15.299-2.605,21.306-7.025
	c6.006,4.42,13.372,7.025,21.306,7.025c7.932,0,15.299-2.605,21.305-7.025c5.892,4.42,13.259,7.025,21.305,7.025
	c7.934,0,15.3-2.605,21.306-7.025c5.894,4.42,13.26,7.025,21.306,7.025c19.605,0,35.584-15.752,35.584-35.131
	S381.162,385.813,361.556,385.813z M340.25,439.078c-4.307-4.875-6.913-11.221-6.913-18.133c0-6.913,2.606-13.259,6.913-18.132
	c4.307,4.873,6.914,11.219,6.914,18.132C347.165,427.857,344.557,434.203,340.25,439.078L340.25,439.078z M297.64,439.078
	c-4.307-4.875-6.913-11.221-6.913-18.133c0-6.913,2.606-13.259,6.913-18.132c4.307,4.873,6.913,11.219,6.913,18.132
	C304.553,427.857,301.947,434.203,297.64,439.078z M255.03,439.078c-4.307-4.875-6.913-11.221-6.913-18.133
	c0-6.913,2.606-13.259,6.913-18.132c4.306,4.873,6.913,11.219,6.913,18.132C262.056,427.857,259.335,434.203,255.03,439.078z
	 M205.506,420.945c0-15.299,12.692-27.765,28.218-27.765c5.779,0,11.219,1.7,15.752,4.759c-5.439,6.12-8.726,14.166-8.726,23.005
	c0,8.84,3.286,16.885,8.726,23.004c-4.533,2.947-9.859,4.76-15.752,4.76C218.199,448.708,205.506,436.244,205.506,420.945z
	 M260.583,443.949c5.439-6.119,8.727-14.164,8.727-23.004c0-8.839-3.287-16.885-8.727-23.005c4.533-2.946,9.859-4.759,15.753-4.759
	c5.893,0,11.219,1.7,15.752,4.759c-5.439,6.12-8.84,14.166-8.84,23.005c0,8.84,3.287,16.885,8.84,23.004
	c-4.533,2.947-9.859,4.76-15.752,4.76C270.555,448.708,265.116,446.896,260.583,443.949z M303.194,443.949
	c5.438-6.119,8.839-14.164,8.839-23.004c0-8.839-3.286-16.885-8.839-23.005c4.532-2.946,9.858-4.759,15.751-4.759
	c5.894,0,11.221,1.7,15.753,4.759c-5.439,6.12-8.839,14.166-8.839,23.005c0,8.84,3.287,16.885,8.839,23.004
	c-4.532,2.947-9.859,4.76-15.753,4.76C313.052,448.708,307.726,446.896,303.194,443.949z M361.556,448.708
	c-5.779,0-11.219-1.699-15.753-4.76c5.439-6.119,8.84-14.164,8.84-23.004c0-8.839-3.286-16.885-8.84-23.005
	c4.534-2.946,9.859-4.759,15.753-4.759c15.525,0,28.218,12.465,28.218,27.765C389.774,436.244,377.082,448.708,361.556,448.708z"/>
</svg>
