<?xml version="1.0" encoding="utf-8"?>
<!-- Generator: Adobe Illustrator 16.0.0, SVG Export Plug-In . SVG Version: 6.00 Build 0)  -->
<!DOCTYPE svg PUBLIC "-//W3C//DTD SVG 1.1//EN" "http://www.w3.org/Graphics/SVG/1.1/DTD/svg11.dtd">
<svg version="1.1" id="Layer_1" xmlns="http://www.w3.org/2000/svg" xmlns:xlink="http://www.w3.org/1999/xlink" x="0px" y="0px"
	 width="200px" height="200px" viewBox="0 0 200 200" enable-background="new 0 0 200 200" xml:space="preserve">
<path d="M160.457,39.544C144.309,23.394,122.838,14.5,100,14.5c-47.146,0-85.5,38.354-85.5,85.5
	c0,22.837,8.894,44.309,25.043,60.457C55.692,176.606,77.163,185.5,100,185.5c22.838,0,44.31-8.894,60.457-25.043
	C176.605,144.309,185.5,122.837,185.5,100S176.606,55.692,160.457,39.544z M100,182.542c-22.047,0-42.775-8.587-58.364-24.177
	C26.044,142.773,17.458,122.048,17.458,100c0-22.047,8.586-42.775,24.176-58.365C57.225,26.044,77.952,17.459,100,17.459
	s42.775,8.584,58.365,24.175c15.59,15.59,24.177,36.317,24.177,58.365C182.542,145.514,145.514,182.542,100,182.542z"/>
<path d="M52.7,100H100V52.7C73.878,52.7,52.7,73.877,52.7,100L52.7,100z"/>
<path d="M100,100v47.3c26.122,0,47.299-21.178,47.299-47.3H100L100,100z"/>
<path d="M100,20.86c-43.707,0-79.14,35.433-79.14,79.14c0,43.708,35.433,79.141,79.14,79.141c43.708,0,79.139-35.433,79.139-79.141
	C179.139,56.293,143.708,20.86,100,20.86z M88.434,25.182H94.7l5.67,14.836l5.669-14.836h6.266v20.83h-4.169V31.467l-5.487,14.544
	h-4.556l-5.488-14.544v14.544h-4.17L88.434,25.182L88.434,25.182z M35.9,59.449l10.164-12.113c2.103-2.507,5.045-4.509,7.841-2.163
	c0.863,0.724,1.229,0.963,2.276,2.874c0.247,0.677,0.437,1.906-0.028,3.109c2.431-1.507,5.022-1.017,6.697,0.612
	c2.575,2.503,2.197,5.396-0.253,8.316L51.878,72.857L35.9,59.449z M100,150.551c-27.918,0-50.552-22.633-50.552-50.551
	c0-27.918,22.634-50.551,50.552-50.551c27.918,0,50.551,22.633,50.551,50.551C150.551,127.918,127.918,150.551,100,150.551z
	 M147.102,73.282l-3.78-4.708l7.535-11.019l-0.044-0.055l-12.347,5.079l-3.818-4.679l13.068-16.81l3.224,3.98l-8.185,10.706
	l12.507-5.37l3.458,4.269l-7.852,11.117l12.172-5.779l3.223,3.98L147.102,73.282z"/>
<path d="M48.286,50.334c0.708-0.844,2.306-0.809,3.333,0.054c1.13,0.949,1.134,2.293,0.375,3.197l-6.037,7.193l-3.777-3.169
	L48.286,50.334L48.286,50.334z"/>
<path d="M59.025,58.82l-6.363,7.584l-3.992-3.348l6.416-7.646c0.725-0.863,2.34-1.115,3.43-0.201
	C59.748,56.244,59.87,57.813,59.025,58.82L59.025,58.82z"/>
</svg>
