<?xml version="1.0" encoding="utf-8"?>
<!-- Generator: Adobe Illustrator 16.0.0, SVG Export Plug-In . SVG Version: 6.00 Build 0)  -->
<!DOCTYPE svg PUBLIC "-//W3C//DTD SVG 1.1//EN" "http://www.w3.org/Graphics/SVG/1.1/DTD/svg11.dtd">
<svg version="1.1" id="Layer_1" xmlns="http://www.w3.org/2000/svg" xmlns:xlink="http://www.w3.org/1999/xlink" x="0px" y="0px"
	 width="200px" height="200px" viewBox="0 0 200 200" enable-background="new 0 0 200 200" xml:space="preserve">
<path d="M169.296,30.705C150.786,12.194,126.177,2,100,2C45.962,2,2,45.962,2,100c0,26.176,10.194,50.786,28.704,69.296
	C49.214,187.807,73.824,198,100,198c26.177,0,50.787-10.193,69.296-28.704C187.805,150.786,198,126.176,198,100
	S187.807,49.214,169.296,30.705z M100,194.609c-25.27,0-49.029-9.842-66.897-27.711C15.232,149.027,5.391,125.271,5.391,100
	c0-25.27,9.841-49.029,27.711-66.898C50.971,15.232,74.729,5.392,100,5.392c25.271,0,49.029,9.84,66.898,27.71
	c17.869,17.869,27.711,41.627,27.711,66.898C194.609,152.168,152.168,194.609,100,194.609z"/>
<path d="M45.785,100H100V45.785C70.059,45.785,45.785,70.058,45.785,100L45.785,100z"/>
<path d="M100,100v54.215c29.941,0,54.214-24.273,54.214-54.215H100L100,100z"/>
<path d="M100,9.29C49.903,9.29,9.29,49.903,9.29,100c0,50.098,40.613,90.711,90.71,90.711c50.098,0,90.709-40.613,90.709-90.711
	C190.709,49.903,150.098,9.29,100,9.29z M86.743,14.243h7.182l6.499,17.005l6.498-17.005h7.182v23.875h-4.779V21.447l-6.29,16.671
	h-5.221l-6.29-16.671v16.671h-4.78V14.243z M26.529,53.52l11.65-13.884c2.411-2.874,5.783-5.168,8.987-2.479
	c0.99,0.83,1.409,1.104,2.609,3.294c0.283,0.776,0.501,2.185-0.032,3.564c2.787-1.727,5.756-1.165,7.676,0.702
	c2.951,2.869,2.518,6.185-0.29,9.531L44.843,68.889L26.529,53.52z M100,157.941C68,157.941,42.057,132,42.057,100
	S68,42.058,100,42.058S157.941,68,157.941,100S132,157.941,100,157.941z M153.988,69.376l-4.334-5.396l8.638-12.63l-0.051-0.063
	l-14.151,5.822l-4.377-5.363l14.979-19.267l3.695,4.562l-9.381,12.271l14.335-6.155l3.964,4.894l-9,12.742l13.952-6.624l3.693,4.562
	L153.988,69.376z"/>
<path d="M40.725,43.073c0.811-0.967,2.643-0.927,3.821,0.062c1.296,1.087,1.3,2.628,0.429,3.665l-6.919,8.245l-4.329-3.633
	L40.725,43.073L40.725,43.073z"/>
<path d="M53.035,52.8l-7.294,8.693l-4.575-3.838l7.354-8.764c0.831-0.989,2.682-1.278,3.931-0.23
	C53.863,49.847,54.003,51.646,53.035,52.8L53.035,52.8z"/>
</svg>
