<?xml version="1.0" encoding="utf-8"?>
<!-- Generator: Adobe Illustrator 16.0.0, SVG Export Plug-In . SVG Version: 6.00 Build 0)  -->
<!DOCTYPE svg PUBLIC "-//W3C//DTD SVG 1.1//EN" "http://www.w3.org/Graphics/SVG/1.1/DTD/svg11.dtd">
<svg version="1.1" id="Layer_1" xmlns="http://www.w3.org/2000/svg" xmlns:xlink="http://www.w3.org/1999/xlink" x="0px" y="0px"
	 width="200px" height="200px" viewBox="197.64 320.945 200 200" enable-background="new 197.64 320.945 200 200"
	 xml:space="preserve">
<g>
	<path id="Shape" d="M297.641,341.072c-44.209,0-79.874,35.665-79.874,79.874c0,44.208,35.665,79.873,79.874,79.873
		c44.208,0,79.873-35.664,79.873-79.873C377.513,376.736,341.477,341.072,297.641,341.072L297.641,341.072z M372.313,420.945
		c0,41.237-33.436,74.672-74.672,74.672c-41.237,0-74.672-33.436-74.672-74.672s33.435-74.672,74.672-74.672
		C338.877,346.273,372.313,379.708,372.313,420.945z"/>
	<path id="Shape_1_" d="M297.641,373.764v2.601l0,0c24.518,0,44.952,20.061,44.952,44.951h2.601
		C344.822,394.94,323.645,373.764,297.641,373.764L297.641,373.764 M297.641,465.897c-24.52,0-44.952-20.062-44.952-44.952h-2.601
		c0,26.004,21.176,47.181,47.181,47.181"/>
	<g id="Group" transform="translate(7.197531, 3.271605)">
		<path id="W_61_" d="M328.698,383.761c1.114,1.114,2.601,2.972,3.344,4.086l16.346-10.03c-0.742-1.115-2.229-2.601-2.972-3.715
			l-10.402,6.688l-0.742,0.743l0.371-0.743l4.458-8.917l-2.973-3.343l-8.916,4.458l-0.742,0.372l0.742-0.743l6.687-10.03
			c-1.113-1.115-2.229-1.858-3.714-2.972l-10.402,15.975c1.486,1.114,2.972,2.6,4.087,3.343l9.658-4.83l0.744-0.372l-0.373,0.743
			L328.698,383.761z"/>
		<path id="M_61_" d="M291.919,363.7l4.458-10.031l0.372-0.743v0.743l0.371,13.002c1.486,0,2.973,0.372,4.83,0.743l-0.743-19.318
			c-2.229-0.371-4.458-0.371-6.688-0.371l-4.458,10.773v0.743v-0.743l-4.458-10.773c-2.229,0-4.458,0.371-6.687,0.371l-0.743,19.318
			c1.486-0.371,3.343-0.371,4.83-0.743l0.372-13.002v-0.743v0.743l4.458,9.659h4.086V363.7z"/>
		<path id="B_x5F_22d_61_" d="M256.256,378.932c2.6-2.601,4.086-5.944,1.486-8.544c-1.486-1.486-3.715-1.857-5.573-1.114h-0.371l0,0
			c0.371-0.743,0.371-3.344-1.486-4.83c-1.115-0.743-2.229-1.114-3.715-1.114c-2.229,0.372-4.087,1.857-9.288,7.43
			c-1.486,1.858-3.715,4.458-5.201,5.944l13.746,13.003C250.683,384.875,252.54,383.018,256.256,378.932z M238.051,375.959
			c2.601-3.343,5.573-6.315,7.059-7.801c0.372-0.372,0.743-0.743,1.486-0.743c0.743-0.371,1.857,0.372,2.229,1.486
			c0.371,0.743-0.372,1.857-1.115,2.601c-1.486,1.486-6.687,7.43-6.687,7.43L238.051,375.959z M243.624,381.161
			c0,0,5.201-5.572,7.059-7.43c0.743-0.743,1.115-1.114,1.486-1.486c0.743-0.372,1.115-0.372,1.858,0
			c0.743,0.372,0.743,1.115,0.743,1.857c0,0.743-0.743,1.486-1.486,2.229c-0.743,0.743-7.059,7.43-7.059,7.43L243.624,381.161z"/>
	</g>
	<path id="Path" d="M297.641,373.764v47.181h-47.553C250.088,394.94,271.264,373.764,297.641,373.764z"/>
	<path id="Path_1_" d="M344.822,420.945c0,26.004-21.177,47.181-47.181,47.181v-47.181H344.822z"/>
</g>
</svg>
