<?xml version="1.0" encoding="utf-8"?>
<!-- Generator: Adobe Illustrator 16.0.0, SVG Export Plug-In . SVG Version: 6.00 Build 0)  -->
<!DOCTYPE svg PUBLIC "-//W3C//DTD SVG 1.1//EN" "http://www.w3.org/Graphics/SVG/1.1/DTD/svg11.dtd">
<svg version="1.1" id="katman_1" xmlns="http://www.w3.org/2000/svg" xmlns:xlink="http://www.w3.org/1999/xlink" x="0px" y="0px"
	 width="200px" height="200px" viewBox="0 0 200 200" enable-background="new 0 0 200 200" xml:space="preserve">
<g>
	<path fill="#1D1D1B" d="M57.313,90.545c-2.765-3.686-7.167-5.754-11.754-5.529c-3.031,0-16.507,0-24.31,0H0.791v7.395
		c16.465,0,35.982,0,44.563,0c1.516-0.125,3.031,0.307,4.219,1.248c1.127,0.963,1.516,2.539,1.003,3.912
		c-0.798,2.191-3.03,2.744-5.222,2.765c-3.399,0-12.697,0-19.661,0c-17.06,0-9.667,0-24.903,0v7.27c16.445,0,36.023,0,44.563,0
		c2.642,0,5.448,0.963,5.448,3.952c0,2.971-2.807,3.912-5.448,3.953c-8.521,0-28.078,0-44.563,0v7.353c16.508,0,38.113,0,44.77,0
		c4.607,0.204,9.01-1.885,11.754-5.569c2.826-4.28,2.171-9.975-1.576-13.477C59.382,100.354,60.037,94.783,57.313,90.545z"/>
	<path fill="#1D1D1B" d="M191.7,89.356c-4.402-2.948-9.625-4.444-14.929-4.26c-4.342,0-10.916,0-16.712-0.185h-19.188v7.476
		c14.377,0,24.31,0,35.573,0.185c3.439-0.144,6.818,0.736,9.747,2.52c4.936,3.357,6.205,10.056,2.847,14.991
		c-0.758,1.126-1.72,2.089-2.847,2.847c-2.97,1.843-6.41,2.744-9.912,2.621c-11.1,0.308-21.278,0.204-35.532,0.204v7.353
		c14.458,0,24.863,0,35.901-0.204c5.283,0.186,10.506-1.291,14.929-4.197c8.11-5.716,10.076-16.917,4.363-25.027
		c-1.188-1.7-2.663-3.174-4.363-4.362L191.7,89.356z"/>
	<path fill="#1D1D1B" d="M81.5,101.521c-3.85,0-5.078-1.313-5.099-5.14c-0.021-3.83,0-7.742,0-11.367H67.88
		c0,3.646,0,10.998,0,14.562c0.268,6.922,2.561,9.113,9.605,9.34c4.895,0,8.786,0,15.564,0v-7.395
		C87.707,101.521,85.513,101.521,81.5,101.521z"/>
	<path fill="#1D1D1B" d="M123.566,96.382c0,3.747-1.25,4.956-5.102,5.017c-1.862,0-6.694,0-10.67,0H96.819v21.667h9.973v-14.19
		h1.003c5.202,0,11.675,0,14.132,0c7.518-0.206,9.789-2.334,10.057-9.34c0-0.922,0-2.09,0-3.399V84.893h-8.417
		C123.566,88.599,123.607,92.736,123.566,96.382z"/>
</g>
</svg>
