<?xml version="1.0" encoding="utf-8"?>
<!-- Generator: Adobe Illustrator 16.0.0, SVG Export Plug-In . SVG Version: 6.00 Build 0)  -->
<!DOCTYPE svg PUBLIC "-//W3C//DTD SVG 1.1//EN" "http://www.w3.org/Graphics/SVG/1.1/DTD/svg11.dtd">
<svg version="1.1" id="Layer_1" xmlns="http://www.w3.org/2000/svg" xmlns:xlink="http://www.w3.org/1999/xlink" x="0px" y="0px"
	 width="200px" height="200px" viewBox="0 0 200 200" enable-background="new 0 0 200 200" xml:space="preserve">
<path fill="#070707" d="M86.28,112.218c-3.897-0.211-7.739-0.727-7.739-0.727c-1.515-0.02-2.399-1.668-2.399-1.668
	s-0.457-0.508-1.396-1.967c-0.94-1.455-1.261-2.232-1.261-2.232c-0.337-0.646-0.628-1.043-0.628-1.918
	c0-0.654,1.262-1.664,1.262-1.664l7.555-6.339l7.542-5.748c4.155-3.009,6.73-4.401,8.552-4.886c0.977-0.26,1.91-0.308,2.312-0.308
	c0.467,0.015,1.223,0.032,2.759,0.622c2.16,0.828,5.841,3.017,14.047,9.477l8.864,7.377c0,0,0.99,0.664,1.125,1.359
	c0.076,0.357,0.04,0.795-0.207,1.27c0,0-0.298,0.855-1.282,2.441c-0.569,0.91-1.043,1.604-1.732,2.559
	c-0.954,1.316-1.514,1.639-3.007,1.727c0,0-2.403,0.271-5.707,0.477c-4.592,0.287-10.935,0.441-14.886,0.363
	c-0.894,0.031-2.093,0.047-3.468,0.047C93.532,112.479,89.614,112.397,86.28,112.218 M151.772,103.819
	c-8.8-6.08-19.119-14.985-27.482-21.618c-5.825-4.62-8.931-7.75-9.072-7.874c-0.445-0.494-0.455-0.74,0.663-0.752
	c3.287-0.034,9.235,0.653,13.008,1.222c2.291,0.35,4.858,0.891,7.104,1.292c7.122,1.276,13.642,3.131,20.1,5.208
	c2.933,0.942,5.835,2.22,8.365,3.463c4.721,2.317,10.756,6.709,8.499,12.667c-0.441,1.48-1.796,2.991-3.306,4.235
	c-1.888,1.563-7.934,4.01-12.147,4.008C155.3,105.669,153.317,104.88,151.772,103.819 M30.124,101.788
	c-1.507-1.247-2.99-2.805-3.432-4.258c-2.257-5.958,4.108-10.584,8.833-12.899c3.741-1.834,9.473-3.993,15.052-5.41
	c6.488-1.646,11.477-2.76,13.616-3.244c1.031-0.231,4.411-0.851,7.95-1.376c3.904-0.582,7.645-1.074,10.469-1.275
	c1.208-0.085,2.542-0.033,1.642,0.704c-0.138,0.125-2.823,3.456-8.648,8.076c-8.364,6.634-18.787,15.522-27.584,21.6
	c-1.351,0.893-3.292,2.148-5.482,2.148h-0.024C37.739,105.829,32.014,103.349,30.124,101.788 M29.574,77.059
	c-17.844,5.964-28.95,15.322-28.95,22.943c0,5.669,7.332,13.38,19.266,18.823c18.066,8.248,47.057,14.176,80.105,14.176
	c36.743,0,68.826-7.422,86.026-17.266c8.493-4.865,13.354-10.848,13.354-15.733c0-5.059-4.821-10.899-12.847-15.66
	c-17.001-10.09-49.244-17.344-86.534-17.344C72.439,66.999,47.578,71.041,29.574,77.059"/>
</svg>
