<?xml version="1.0" encoding="utf-8"?>
<!-- Generator: Adobe Illustrator 16.0.0, SVG Export Plug-In . SVG Version: 6.00 Build 0)  -->
<!DOCTYPE svg PUBLIC "-//W3C//DTD SVG 1.1//EN" "http://www.w3.org/Graphics/SVG/1.1/DTD/svg11.dtd">
<svg version="1.1" id="Layer_1" xmlns="http://www.w3.org/2000/svg" xmlns:xlink="http://www.w3.org/1999/xlink" x="0px" y="0px"
	 width="200px" height="200px" viewBox="300 300 200 200" enable-background="new 300 300 200 200" xml:space="preserve">
<path d="M499.609,401.204v-0.017c-0.041-0.142-0.531-0.199-1.437-0.208l-13.238-0.182c-20.245-0.175-57.921-0.524-59.631-0.524
	h-0.415c-1.979-0.099-3.958,0.177-5.835,0.814l-0.764,0.224c-2.133,0.749-4.348,1.229-6.599,1.429
	c-2.35,0.083-11.313,0.074-11.688,0.074c-0.373,0-9.346,0-11.695-0.066c-2.251-0.197-4.468-0.678-6.599-1.428l-0.747-0.224
	c-1.885-0.639-3.873-0.915-5.86-0.815h-0.366c-1.718,0-39.394,0.167-59.63,0.358l-13.29,0.166c-0.913,0-1.436,0.066-1.428,0.216
	l0.756,0.19c2.789,0.573,5.619,0.913,8.466,1.029c5.421,0.108,45.114,1.104,46.068,1.121c2.142-0.059,4.275,0.323,6.267,1.111
	h12.426c0,0-5.013,0.292-5.088,0.607h-0.315c-1.246,0-5.03,0-7.172-0.1c0,0-0.157,0.597,2.026,0.597
	c0.763,0.516,1.568,1.005,2.291,1.41h10.683c0,0-4.2,0.25-4.283,0.565c-0.498,0-2.324-0.05-4.067-0.1l-2.449-0.075
	c0,0-0.125,0.531,1.884,0.54l0.341,0.216c4.009,1.802,8.259,3.014,12.617,3.594c1.66,0.324,3.32,0.539,5.005,0.664
	c0,0,2.033,0.183,1.676,0.167c-4.748-0.192-9.471-0.806-14.11-1.835c-3.751-0.913-7.331-2.427-10.6-4.482
	c-1.819-1.207-3.943-1.875-6.126-1.926c-1.411-0.091-46.88-1.884-46.98-1.884c-2.919-0.102-5.823-0.491-8.666-1.162l-0.639-0.24
	c0,0.124,0.316,0.456,0.581,0.697c1.412,1.245,6.723,3.826,9.828,4.59c5.396,1.303,38.556,5.52,44.449,6.183l3.253,0.366
	c8.907,0.962,20.104,2.191,25.807,2.771c1.083,0.195,2.199,0.134,3.253-0.183c3.978-1.471,8.193-2.194,12.434-2.132
	c4.252-0.033,8.478,0.691,12.477,2.141c1.04,0.312,2.141,0.374,3.211,0.183c5.711-0.572,16.934-1.826,25.765-2.797l3.296-0.366
	c5.893-0.654,39.053-4.714,44.44-6.017c3.112-0.748,8.425-3.337,9.827-4.581c0.233-0.188,0.43-0.416,0.581-0.674h0.009v-0.016
	V401.204z M397.805,409.463c-6.599,0-13.123-0.092-15.023-0.564c-4.523-1.12-6.632-3.188-6.989-3.817
	c-0.357-0.623-0.266-0.614,0.291-0.614h47.81c0.565,0,0.598,0.058,0.282,0.623c-0.315,0.555-2.44,2.688-6.98,3.809
	c-1.901,0.473-8.425,0.548-15.023,0.564H397.805L397.805,409.463z M498.97,401.403c-2.842,0.674-5.745,1.066-8.665,1.171
	c-0.099,0-45.618,1.635-46.989,1.742c-2.183,0.051-4.307,0.719-6.126,1.926c-3.266,2.055-6.843,3.568-10.591,4.482
	c-4.643,1.032-9.366,1.648-14.118,1.842c-0.357,0,1.676-0.174,1.676-0.174c1.678-0.124,3.346-0.346,4.997-0.663
	c4.355-0.587,8.605-1.798,12.616-3.595l0.399-0.216c2,0,1.892-0.54,1.892-0.54l-2.448,0.083c-1.81,0.042-3.669,0.083-4.134,0.083
	c-0.083-0.298-4.234-0.557-4.234-0.557h10.667c0.761-0.44,1.509-0.906,2.241-1.394c2.19,0,2.041-0.597,2.041-0.597
	c-2.494,0.065-4.991,0.093-7.486,0.083c-0.074-0.308-4.73-0.599-4.73-0.599h12.011c2.006-0.789,4.152-1.163,6.309-1.104
	l46.091-0.946c2.847-0.117,5.678-0.464,8.467-1.038l0.564-0.141L498.97,401.403L498.97,401.403z M399.681,405.818h0.747
	l-1.453,1.039v0.82h-1.095v-0.804l-1.569-1.056h1.287l1.062,0.665L399.681,405.818z M406.396,407.338h2.507v0.332H405.3v-1.859
	h1.096V407.338z M410.878,407.338h2.598v0.332h-3.669v-1.859h3.636v0.341h-2.564v0.423h2.515v0.341h-2.515v0.415V407.338z
	 M389.944,405.818h1.096v1.859h-1.121v-0.754h-2.308v0.746h-1.095v-1.852h1.095v0.749h2.308L389.944,405.818L389.944,405.818z
	 M394.908,406.865l1.411,0.813h-1.245c0,0-1.129-0.804-1.395-1.012c1.121,0.042,1.303-0.083,1.303-0.266s-0.879-0.3-1.876-0.241
	v1.519h-1.162v-1.851h2.532c1.245,0,1.627,0.258,1.627,0.523C396.104,406.583,395.646,406.799,394.908,406.865z M417.436,406.4
	c0-0.191-0.881-0.3-1.876-0.241v1.536h-1.163v-1.852h2.508c1.244,0,1.627,0.282,1.627,0.523c0,0.232-0.457,0.448-1.196,0.498
	l1.411,0.813h-1.244c0,0-1.13-0.804-1.395-1.012C417.22,406.708,417.436,406.583,417.436,406.4L417.436,406.4z M404.511,407.121
	c0,0.474-1.021,0.632-2.082,0.632c-0.579-0.002-1.155-0.04-1.728-0.116l0.117-0.398c0.52,0.092,1.048,0.131,1.576,0.115
	c0.889,0,0.946-0.106,0.946-0.224c0-0.116-0.249-0.189-0.648-0.189l-0.813-0.092c-0.798-0.1-1.12-0.133-1.12-0.606
	c0-0.473,1.029-0.557,1.686-0.557c0.576,0.018,1.153,0.067,1.726,0.15l-0.083,0.356c-0.451-0.068-0.906-0.104-1.361-0.107
	c-0.705,0-0.854,0.032-0.854,0.166c0,0.133,0.224,0.19,0.58,0.19l0.938,0.066C404.138,406.616,404.494,406.799,404.511,407.121
	L404.511,407.121z M382.366,406.716c0,0.431,1.054,0.614,1.751,0.614c0.697,0,1.361-0.083,1.519-0.083l-0.116,0.39
	c-0.199,0.017-0.88,0.083-1.627,0.083c-1.394,0-2.639-0.332-2.639-1.004c0-0.673,1.245-1.013,2.639-1.013
	c0.813,0,1.453,0.083,1.627,0.083l0.116,0.391c-0.504-0.053-1.012-0.079-1.519-0.083
	C383.387,406.094,382.366,406.284,382.366,406.716z M390.642,388.454l-4.565-4.125h3.038l1.735,1.469l1.893,1.627l0.349,0.307
	l0.332-0.299l3.511-3.079h1.179l-4.234,4.066l-0.158,0.167v3.578h-2.905v-3.553l-0.166-0.158H390.642z M435.272,392.165h-12.227
	v-7.844h2.706v6.873h9.521V392.165z M453.417,392.114h-12.426v-7.777h12.269v0.963h-9.653v2.423h9.496v0.996h-9.496v2.432h9.811
	V392.114L453.417,392.114z M350.376,392.131h-2.764v-7.828h2.764v3.461h7.586v-3.461h2.748v7.828h-2.739v-3.428h-7.603v3.428
	H350.376z M371.493,392.106h-2.79v-7.844h7.33c1.394-0.083,2.797,0.158,4.075,0.706c0.566,0.241,0.949,0.78,0.987,1.394
	c-0.008,0.896-0.664,1.777-2.996,2.026l-0.664,0.083l0.506,0.398c0.747,0.606,2.589,2.449,3.453,3.262l0.083,0.024h-3.196
	c-0.474-0.522-3.096-2.905-4.233-4.067c1.095-0.038,2.183-0.174,3.253-0.407c0.475-0.154,0.804-0.588,0.822-1.087
	c-0.011-0.31-0.172-0.594-0.432-0.764c-0.664-0.556-2.199-0.556-3.992-0.556h-2.208V392.106L371.493,392.106z M412.206,390.097
	c0-0.473-0.407-0.697-0.813-0.813c-0.553-0.147-1.116-0.25-1.686-0.308c-0.953-0.115-1.906-0.248-2.855-0.398
	c-0.982-0.089-1.941-0.366-2.821-0.813c-0.509-0.294-0.808-0.85-0.772-1.436c-0.009-0.822,0.697-1.345,1.842-1.686
	c1.213-0.298,2.467-0.439,3.712-0.415c1.942,0.025,3.884,0.167,5.81,0.448l-0.19,0.946c-1.479-0.268-2.979-0.406-4.483-0.415
	c-0.819-0.035-1.643,0.029-2.447,0.191c-0.507,0.141-0.814,0.448-0.814,0.813c0.033,0.406,0.331,0.742,0.731,0.822
	c0.495,0.139,1.005,0.231,1.519,0.273c0.862,0.083,2.067,0.25,3.212,0.416c0.962,0.078,1.897,0.352,2.748,0.805
	c0.512,0.283,0.825,0.826,0.813,1.411c0.008,0.797-0.715,1.411-2.026,1.834c-1.596,0.425-3.245,0.621-4.896,0.581l0.017-0.049
	c-1.873-0.016-3.742-0.163-5.595-0.44l0.241-1.121c1.701,0.374,3.444,0.564,5.188,0.564c0.99,0.068,1.986-0.067,2.921-0.399
	C411.92,390.797,412.177,390.476,412.206,390.097L412.206,390.097z M326.82,388.263c0-1.311,0.855-2.249,2.307-2.938
	c1.778-0.754,3.697-1.116,5.627-1.063c1.586,0.008,3.171,0.125,4.74,0.333l0.224,1.07c-1.436-0.173-2.879-0.272-4.325-0.298
	c-1.246-0.01-2.483,0.207-3.652,0.639c-1.104,0.431-2.017,1.137-2.017,2.233c0,1.087,0.913,1.801,2.017,2.233
	c1.162,0.432,2.407,0.647,3.652,0.63c1.443-0.023,2.883-0.12,4.316-0.291l-0.282,1.096c-1.569,0.212-3.148,0.322-4.732,0.332
	c-1.909,0.05-3.807-0.303-5.569-1.038C327.633,390.513,326.82,389.542,326.82,388.263L326.82,388.263z M463.112,392.189h-2.748
	v-7.852h7.33c1.396-0.083,2.791,0.162,4.075,0.714c0.563,0.24,0.946,0.775,0.988,1.386c-0.009,0.905-0.664,1.785-2.996,2.034
	l-0.665,0.066l0.507,0.415c0.746,0.598,2.589,2.398,3.453,3.254v0.008h-3.146c-0.474-0.523-3.105-2.905-4.234-4.067
	c1.098-0.036,2.19-0.174,3.262-0.415c0.472-0.153,0.797-0.584,0.814-1.079c-0.012-0.31-0.173-0.594-0.433-0.764
	c-0.68-0.564-2.199-0.564-3.991-0.564h-2.208v6.864H463.112z"/>
</svg>
