<?xml version="1.0" encoding="utf-8"?>
<!-- Generator: Adobe Illustrator 16.0.0, SVG Export Plug-In . SVG Version: 6.00 Build 0)  -->
<!DOCTYPE svg PUBLIC "-//W3C//DTD SVG 1.1//EN" "http://www.w3.org/Graphics/SVG/1.1/DTD/svg11.dtd">
<svg version="1.1" id="katman_1" xmlns="http://www.w3.org/2000/svg" xmlns:xlink="http://www.w3.org/1999/xlink" x="0px" y="0px"
	 width="200px" height="200px" viewBox="197.64 320.945 200 200" enable-background="new 197.64 320.945 200 200"
	 xml:space="preserve">
<g>
	<polygon fill="#C9C8C8" points="370.548,410.551 347.488,437.337 358.707,437.337 381.809,410.551 	"/>
	<polygon fill="#C9C8C8" points="386.281,410.551 363.219,437.337 374.481,437.337 397.293,410.841 397.293,410.551 	"/>
	<path d="M205.439,419.122c-0.456,0-0.786,0.373-0.786,0.828l0,0v4.968c0,0.454,0.331,0.829,0.786,0.829l0,0h10.02
		c3.022,0,5.382-1.45,5.382-3.313c0-1.821-2.359-3.312-5.382-3.312H205.439z M198.733,427.733c-0.415,0-0.746-0.332-0.746-0.745l0,0
		v-9.191c0-0.414,0.332-0.745,0.746-0.745h19.541c2.443-0.041,4.844,0.539,6.956,1.657c1.739,0.993,2.774,2.318,2.774,3.684
		s-0.993,2.69-2.774,3.685c-2.152,1.119-4.554,1.698-6.956,1.656H198.733z"/>
	<path d="M276.484,419.122c-0.456,0-0.787,0.373-0.787,0.828l0,0v4.968c0,0.454,0.332,0.829,0.787,0.829l0,0h10.019
		c3.022,0,5.382-1.45,5.382-3.271c0-1.822-2.36-3.271-5.382-3.271L276.484,419.122z M269.777,427.733
		c-0.414,0-0.745-0.332-0.745-0.745l0,0v-9.191c0-0.414,0.331-0.745,0.745-0.745l19.542,0.042c2.442-0.042,4.802,0.497,6.956,1.615
		c1.738,0.993,2.773,2.318,2.773,3.684s-0.993,2.69-2.773,3.685c-2.153,1.119-4.554,1.698-6.956,1.615L269.777,427.733z"/>
	<path d="M248.497,418.832c-0.704,0-1.45,0-2.153,0c-4.099,0.166-7.08,1.615-7.08,3.602c0,1.987,2.981,3.396,7.039,3.561l0,0
		c0.621,0,1.241,0,2.111,0c0.869,0,1.449,0,2.111,0l0,0c4.099-0.123,7.038-1.614,7.038-3.561c0-1.946-2.981-3.436-7.038-3.56
		c-0.704,0-1.449,0-2.153,0 M248.414,428.106c-1.615,0-2.732,0-3.851-0.083h-0.083c-2.981-0.042-5.962-0.622-8.694-1.739
		c-2.236-1.035-3.478-2.36-3.478-3.809c0-2.898,5.382-5.341,12.214-5.548c1.283-0.042,2.608-0.083,3.892-0.083
		c1.283,0,2.608,0,3.892,0.083c6.872,0.207,12.213,2.608,12.213,5.548c0,1.407-1.242,2.773-3.478,3.809
		c-2.774,1.117-5.713,1.697-8.694,1.739h0.042c-1.118,0-2.236,0.083-3.809,0.083"/>
	<path d="M314.531,427.775h-0.33c-7.286,0-11.137-1.904-11.137-5.342c0-2.815,4.884-5.174,11.178-5.34h1.367h18.01
		c0.206-0.042,0.372,0.124,0.414,0.289c0,0.042,0,0.042,0,0.083v1.283c0,0.208-0.126,0.373-0.332,0.373c-0.042,0-0.042,0-0.082,0
		h-15.733c-0.62,0-1.2,0-1.863,0c-1.449,0.041-6.169,0.497-6.169,3.271c0,1.946,2.526,3.146,6.169,3.271l0,0
		c0.539,0,1.077,0,1.822,0h8.527c0.456,0,0.829-0.124,0.829-0.58v-1.116c0-0.457-0.373-0.622-0.829-0.622h-8.527
		c-0.207,0-0.373-0.165-0.373-0.372l0,0v-1.077c0-0.206,0.207-0.413,0.414-0.372l0,0h15.359c0.414,0,0.746,0.331,0.746,0.745v4.803
		c0,0.414-0.332,0.745-0.746,0.745L314.531,427.775"/>
	<path d="M339.746,427.733c-0.414,0-0.704-0.332-0.704-0.703l0,0v-9.233c0-0.414,0.33-0.703,0.704-0.703l0,0h26.455
		c0.248,0,0.414,0.207,0.414,0.414v1.201c0,0.248-0.208,0.414-0.414,0.414l0,0h-19.334c-0.456-0.083-0.912,0.249-0.993,0.704
		c0,0.042,0,0.125,0,0.166v0.704c0,0.58,0.454,0.829,1.035,0.829h18.382c0.247,0,0.412,0.166,0.412,0.414v0.993
		c0,0.208-0.165,0.414-0.371,0.414h-0.041h-18.424c-0.58,0-1.036,0.29-1.036,0.87v0.744c0,0.539,0.456,0.788,1.036,0.788h19.748
		c0.208,0,0.414,0.165,0.414,0.372v0.042v1.201c0,0.246-0.166,0.413-0.414,0.413l0,0h-26.869V427.733z"/>
</g>
</svg>
