<?xml version="1.0" encoding="utf-8"?>
<!-- Generator: Adobe Illustrator 16.0.0, SVG Export Plug-In . SVG Version: 6.00 Build 0)  -->
<!DOCTYPE svg PUBLIC "-//W3C//DTD SVG 1.1//EN" "http://www.w3.org/Graphics/SVG/1.1/DTD/svg11.dtd">
<svg version="1.1" id="Layer_1" xmlns="http://www.w3.org/2000/svg" xmlns:xlink="http://www.w3.org/1999/xlink" x="0px" y="0px"
	 width="200px" height="200px" viewBox="197.64 320.945 200 200" enable-background="new 197.64 320.945 200 200"
	 xml:space="preserve">
<g id="XMLID_1_">
	<path id="XMLID_83_" d="M298.704,487.571c-5.617,0-11.233-0.299-16.849-0.823c-11.981-1.272-23.663-3.744-34.895-8.087
		c-8.985-3.444-17.372-8.013-24.935-14.077c-7.039-5.616-12.879-12.28-17.073-20.442c-2.845-5.541-4.643-11.382-5.316-17.597
		c-1.273-11.981,1.423-22.989,7.712-33.172c4.942-8.012,11.457-14.377,19.02-19.693c8.536-5.99,17.896-10.258,27.781-13.329
		c6.065-1.872,12.205-3.22,18.42-4.193c10.109-1.572,20.292-2.096,30.476-1.722c7.114,0.225,14.153,0.899,21.191,2.172
		c11.831,2.021,23.213,5.466,33.995,10.932c8.687,4.418,16.55,10.034,23.214,17.372c6.364,7.114,11.006,15.201,13.178,24.635
		c1.124,4.942,1.572,9.959,1.199,14.977c-0.749,9.958-4.193,18.944-9.885,26.956c-5.542,7.788-12.506,13.928-20.442,19.02
		c-9.509,6.065-19.843,10.109-30.625,12.88c-6.066,1.572-12.206,2.62-18.422,3.369C310.535,487.272,304.619,487.497,298.704,487.571
		z M298.479,481.656c0,0.075,0,0.15,0,0.15c4.417-0.3,8.91-0.45,13.328-0.824c5.691-0.448,11.232-1.423,16.772-2.771
		c9.735-2.396,19.02-5.916,27.556-11.232c7.188-4.417,13.555-9.884,18.571-16.772c7.262-9.884,10.781-20.892,9.733-33.322
		c-0.374-4.417-1.348-8.686-2.92-12.804c-3.294-8.761-8.761-15.95-15.725-22.015c-7.488-6.515-16.024-11.157-25.16-14.602
		c-10.632-3.969-21.564-6.065-32.797-6.889c-7.039-0.524-14.078-0.524-21.117-0.075c-6.065,0.449-12.056,1.273-17.971,2.546
		c-9.435,2.021-18.496,5.242-26.957,9.959c-7.937,4.418-15.051,10.034-20.742,17.372c-5.916,7.563-9.584,16.099-10.558,25.759
		c-0.599,5.691-0.149,11.232,1.348,16.699c2.247,8.536,6.665,15.8,12.58,22.164c6.065,6.516,13.254,11.457,21.191,15.35
		c11.906,5.916,24.635,9.062,37.739,10.483C288.444,481.431,293.461,481.656,298.479,481.656z"/>
	<path id="XMLID_58_" d="M298.704,388.505c0.748,0.299,1.348,0.449,1.947,0.749c3.069,1.647,6.214,3.369,9.284,4.942
		c6.365,3.294,12.805,6.589,19.169,9.884c2.322,1.198,2.097,1.123,2.097,3.519c0,2.92,0.226,5.841,0.3,8.836
		c0.15,5.317,0.374,10.708,0.523,16.024c0.15,5.093,1.349,9.885,4.419,14.003c2.695,3.669,6.439,5.766,10.857,6.29
		c7.412,0.823,13.554-1.946,18.495-7.488c4.417-4.867,6.739-10.783,7.787-17.297c0.6-3.819,0.749-7.639,0.449-11.532
		c-0.374-4.493-1.497-8.836-3.294-12.954c-3.97-8.986-10.034-16.024-18.047-21.491c-7.337-5.017-15.351-8.536-23.736-11.082
		c-5.99-1.797-12.056-3.07-18.271-3.819c-5.766-0.674-11.532-0.749-17.298-0.375c-3.594,0.225-7.114,0.449-10.708,0.898
		c-11.157,1.348-22.015,4.119-32.124,9.435c-8.012,4.193-15.051,9.734-20.667,17.073c-4.493,5.915-7.413,12.505-8.536,19.918
		c-1.198,8.461-0.225,16.698,3.444,24.412c2.995,6.364,7.638,11.007,14.227,13.553c2.695,1.049,5.466,1.272,8.312,1.049
		c3.52-0.3,6.665-1.648,9.285-4.044c3.145-2.92,5.092-6.59,5.84-10.857c0.674-4.044,0.749-8.087,0.899-12.206
		c0.225-6.589,0.524-13.104,0.749-19.693c0-0.599,0.225-0.898,0.749-1.198c9.36-4.867,18.645-9.659,27.93-14.527
		c0.898-0.449,1.797-0.973,2.695-1.497c0.898-0.524,1.124-0.3,1.198,0.749c0,0.15,0,0.299,0,0.449c0,21.041,0,42.083,0,63.199
		c0,3.669-0.225,7.338-1.198,10.933c-1.272,4.792-4.118,8.012-8.686,9.509c-4.043,1.349-8.237,1.574-12.43,1.349
		c-8.387-0.449-16.249-3.146-24.111-6.065c-5.841-2.247-11.382-5.092-16.324-8.911c-9.435-7.263-15.8-16.697-18.795-28.453
		c-1.348-5.167-1.722-10.409-1.198-15.651c0.898-9.81,4.642-18.346,11.007-25.684c6.74-7.788,14.827-13.704,24.037-18.121
		c7.188-3.445,14.677-5.841,22.389-7.563c10.108-2.247,20.292-2.995,30.552-2.621c12.056,0.449,23.886,2.396,35.343,6.439
		c7.264,2.546,14.152,5.841,20.442,10.258c7.038,4.867,12.954,10.933,17.446,18.421c2.472,4.118,4.344,8.461,5.241,13.179
		c0.375,2.096,0.6,4.268,0.75,6.439c0.225,3.22,0.225,6.515-0.075,9.735c-0.6,6.964-2.771,13.328-6.515,19.169
		c-6.44,10.034-15.274,17.223-25.908,22.09c-6.739,3.069-13.703,5.392-21.041,6.664c-4.492,0.749-8.986,1.048-13.554,0.6
		c-2.996-0.3-5.766-0.975-8.461-2.472c-2.696-1.498-4.269-3.895-5.316-6.739c-0.899-2.396-1.349-4.867-1.349-7.413
		c-0.074-6.515-0.148-13.029-0.148-19.544c0-16.398,0-32.797,0-49.196C298.704,389.179,298.704,388.879,298.704,388.505z"/>
</g>
</svg>
