<?xml version="1.0" encoding="utf-8"?>
<!-- Generator: Adobe Illustrator 16.0.0, SVG Export Plug-In . SVG Version: 6.00 Build 0)  -->
<!DOCTYPE svg PUBLIC "-//W3C//DTD SVG 1.1//EN" "http://www.w3.org/Graphics/SVG/1.1/DTD/svg11.dtd">
<svg version="1.1"
	 id="svg2965" xmlns:dc="http://purl.org/dc/elements/1.1/" xmlns:cc="http://creativecommons.org/ns#" xmlns:rdf="http://www.w3.org/1999/02/22-rdf-syntax-ns#" xmlns:svg="http://www.w3.org/2000/svg" xmlns:sodipodi="http://sodipodi.sourceforge.net/DTD/sodipodi-0.dtd" xmlns:inkscape="http://www.inkscape.org/namespaces/inkscape" inkscape:version="0.92.2 (5c3e80d, 2017-08-06)" sodipodi:docname="jeep-logo.svg"
	 xmlns="http://www.w3.org/2000/svg" xmlns:xlink="http://www.w3.org/1999/xlink" x="0px" y="0px" width="200px" height="200px"
	 viewBox="201.181 31.545 200 200" enable-background="new 201.181 31.545 200 200" xml:space="preserve">
<g id="layer1" inkscape:export-ydpi="118.5332" inkscape:export-xdpi="118.5332" inkscape:export-filename="G:\Users\suitedoalex\sites\jeep-logo-9.png">
	<path id="_47431208" d="M237.127,92.209h16.032c0,0-0.002,34.774-0.002,41.995c0.002,7.246-3.105,22.383-25.322,22.383
		c-22.209,0-24.62-14.102-24.62-22.02v-7.75h15.501c0,0,0,2.915,0,7.578c0,4.645,3.105,8.953,8.953,8.953
		c5.849,0,9.457-3.271,9.457-8.781C237.127,129.053,237.127,92.209,237.127,92.209L237.127,92.209z M277.945,109.775
		c12.563,0,23.584,4.819,23.584,27.028h-29.794c0,7.055,2.938,9.963,8.09,9.963c5.176,0,6.905-4.115,6.905-4.115h14.633
		c0,6.375-8.786,14.973-22.045,14.807c-15.161,0-22.548-11.195-22.548-22.725C256.77,123.181,263.312,109.775,277.945,109.775z
		 M286.897,127.851c0-4.307-2.403-8.446-7.943-8.446c-5.316,0-7.22,3.776-7.22,8.446H286.897z M325.793,109.775
		c12.587,0,23.584,4.819,23.584,27.028h-29.77c0,7.055,2.908,9.963,8.082,9.963c5.177,0,6.889-4.115,6.889-4.115h14.633
		c0,6.375-8.786,14.973-22.026,14.807c-15.162,0-22.574-11.195-22.574-22.725C304.611,123.181,311.161,109.775,325.793,109.775z
		 M334.744,127.851c0-4.307-2.408-8.446-7.916-8.446c-5.341,0-7.222,3.776-7.222,8.446H334.744z M352.143,170.879v-59.391h14.8
		c0,0-0.002,0.863-0.002,2.403c0.002,3.61,1.904,1.564,2.072,1.034c0.173-0.504,3.782-4.646,11.194-4.646
		c7.411,0,18.938,5.176,18.938,23.418c0.002,14.104-6.881,24.455-18.773,24.455c-6.542,0-10.326-2.576-11.187-3.611
		c-0.868-1.035-2.072-1.225-2.072,0c0,1.176,0,16.34,0,16.34L352.143,170.879z M366.777,134.204
		c-0.166,8.785,1.705,13.432,8.951,13.432c7.222,0,8.256-7.918,8.256-13.938c0-6.013-1.373-11.89-8.953-11.89
		C370.387,121.808,366.941,125.442,366.777,134.204z"/>
</g>
</svg>
