<?xml version="1.0" encoding="utf-8"?>
<!-- Generator: Adobe Illustrator 16.0.0, SVG Export Plug-In . SVG Version: 6.00 Build 0)  -->
<!DOCTYPE svg PUBLIC "-//W3C//DTD SVG 1.1//EN" "http://www.w3.org/Graphics/SVG/1.1/DTD/svg11.dtd">
<svg version="1.1"
	 id="svg2" xmlns:cc="http://creativecommons.org/ns#" xmlns:sodipodi="http://sodipodi.sourceforge.net/DTD/sodipodi-0.dtd" xmlns:dc="http://purl.org/dc/elements/1.1/" xmlns:rdf="http://www.w3.org/1999/02/22-rdf-syntax-ns#" xmlns:inkscape="http://www.inkscape.org/namespaces/inkscape" xmlns:svg="http://www.w3.org/2000/svg" sodipodi:docname="Land Rover logo.svg" inkscape:version="1.0 (4035a4fb49, 2020-05-01)"
	 xmlns="http://www.w3.org/2000/svg" xmlns:xlink="http://www.w3.org/1999/xlink" x="0px" y="0px" width="200px" height="200px"
	 viewBox="197.196 56.505 200 200" enable-background="new 197.196 56.505 200 200" xml:space="preserve">
<sodipodi:namedview  bordercolor="#666666" gridtolerance="10" guidetolerance="10" inkscape:cy="1457.4121" objecttolerance="10" borderopacity="1" inkscape:cx="1343.4445" id="namedview4" inkscape:zoom="0.1767767" pagecolor="#ffffff" showgrid="false" inkscape:pageopacity="0" inkscape:window-maximized="1" inkscape:window-width="1920" inkscape:window-y="-8" inkscape:window-x="-8" inkscape:window-height="1017" inkscape:current-layer="g10" inkscape:pageshadow="2">
	</sodipodi:namedview>
<g id="g10" transform="matrix(1.3333333,0,0,-1.3333333,-670.62132,1084.724)" inkscape:label="Jaguar Land Rover Annual Report FY2021" inkscape:groupmode="layer">
	<g id="g86" transform="matrix(6.9702248,0,0,6.9702248,760.80856,694.11517)">
		<path id="path88" d="M-3.334,0.196l-0.934-1.834h-0.019l-0.047,1.834h-0.781L-5.146,0.13l0.067-0.041
			c0.065-0.045,0.083-0.092,0.091-0.219l0.106-2.226h0.87l1.405,2.552H-3.334z M-6.114-1.125C-6.202-1.376-6.27-1.538-6.372-1.644
			c-0.08-0.084-0.185-0.144-0.427-0.144c-0.19,0-0.296,0.078-0.296,0.225C-7.096-1.468-7.07-1.324-6.969-1.044
			c0.088,0.251,0.156,0.412,0.258,0.519c0.079,0.084,0.184,0.144,0.427,0.144c0.19,0,0.295-0.078,0.295-0.224
			C-5.987-0.702-6.012-0.846-6.114-1.125 M-6.155,0.227h-0.081c-0.481,0-0.756-0.13-0.981-0.369C-7.497-0.439-7.76-1.24-7.755-1.664
			C-7.75-2.097-7.47-2.397-6.882-2.397h0.086c0.482,0,0.757,0.13,0.982,0.369c0.28,0.297,0.538,1.098,0.533,1.522
			C-5.287-0.073-5.566,0.227-6.155,0.227 M-8.515-0.731C-8.559-0.84-8.607-0.866-8.671-0.892C-8.713-0.908-8.803-0.914-8.89-0.914
			h-0.336l0.183,0.527h0.406c0.122,0,0.171-0.063,0.173-0.135C-8.464-0.568-8.485-0.652-8.515-0.731 M-8.576,0.196h-1.102L-9.7,0.13
			l0.045-0.044c0.047-0.046,0.045-0.101,0.004-0.219l-0.77-2.223h0.704l0.301,0.882l0.238,0l0.265-0.882h0.707l-0.332,0.903
			c0.193,0.031,0.29,0.086,0.387,0.173C-8.02-1.16-7.928-0.989-7.852-0.739c0.111,0.363,0.044,0.571-0.027,0.678
			C-7.978,0.086-8.184,0.196-8.576,0.196 M-1.195-1.333l0.195,0.534h-0.897l0.139,0.407h0.972l0.213,0.589h-1.834l-0.025-0.075
			l0.044-0.043c0.047-0.046,0.045-0.1,0.004-0.219l-0.764-2.215h1.714l0.207,0.593h-1l0.147,0.43H-1.195z M0.863-0.731
			C0.82-0.84,0.771-0.866,0.708-0.892C0.665-0.908,0.576-0.914,0.489-0.914H0.154l0.181,0.527h0.407
			c0.121,0,0.171-0.063,0.172-0.135C0.915-0.568,0.893-0.652,0.863-0.731 M0.802,0.196h-1.102L-0.321,0.13l0.044-0.044
			c0.047-0.046,0.045-0.101,0.004-0.219l-0.771-2.223h0.705l0.301,0.882H0.2l0.265-0.882h0.706L0.84-1.453
			c0.193,0.031,0.289,0.086,0.386,0.173C1.359-1.16,1.451-0.989,1.527-0.739C1.638-0.375,1.571-0.168,1.5-0.061
			C1.402,0.086,1.195,0.196,0.802,0.196 M2.247-3.229c-1.933-0.999-4.511-1.549-7.26-1.549c-2.749,0-5.327,0.55-7.26,1.549
			c-1.859,0.961-2.883,2.212-2.883,3.523c0,1.312,1.024,2.563,2.883,3.523c1.933,0.998,4.511,1.549,7.26,1.549
			c2.749,0,5.327-0.551,7.26-1.549C4.106,2.857,5.13,1.605,5.13,0.294C5.13-1.017,4.106-2.268,2.247-3.229 M2.508,4.323
			c-2.013,1.04-4.684,1.612-7.522,1.612c-2.838,0-5.509-0.573-7.521-1.612c-1.192-0.616-3.192-1.959-3.192-4.03
			c0-2.07,2-3.413,3.192-4.029c2.012-1.04,4.683-1.613,7.521-1.613c2.838,0,5.509,0.572,7.522,1.613C3.7-3.119,5.7-1.776,5.7,0.294
			C5.7,2.365,3.7,3.707,2.508,4.323 M1.976-2.705C-0.103-3.779-2.69-4.188-5.013-4.188c-2.324,0-4.91,0.408-6.99,1.482
			c-1.101,0.569-2.564,1.618-2.564,2.999c0,1.383,1.463,2.43,2.564,2.999c2.08,1.074,4.666,1.482,6.99,1.482
			c2.323,0,4.91-0.408,6.989-1.482C3.078,2.724,4.54,1.676,4.54,0.294C4.54-1.088,3.077-2.136,1.976-2.705 M2.084,3.502
			c-2.111,1.092-4.74,1.51-7.097,1.51c-2.358,0-4.986-0.418-7.098-1.51c-1.186-0.612-2.691-1.718-2.691-3.208
			c0-1.489,1.505-2.595,2.691-3.208c2.112-1.091,4.741-1.509,7.098-1.509c2.357,0,4.986,0.417,7.097,1.509
			c1.187,0.613,2.692,1.719,2.692,3.208C4.776,1.784,3.271,2.89,2.084,3.502 M-10.339-0.134l-1.925-0.633l-0.235-0.645h1.698
			l0.221,0.608h-1.177l1.336,0.452L-10.339-0.134z M-2.678,2.694h0.279c0.19,0,0.295-0.064,0.297-0.211
			C-2.1,2.388-2.125,2.258-2.224,1.978c-0.087-0.25-0.157-0.395-0.256-0.501c-0.079-0.084-0.185-0.121-0.427-0.121H-3.14
			L-2.678,2.694z M-3.289,2.97l-0.762-2.223h1.124c0.482,0,0.757,0.107,0.98,0.346C-1.667,1.39-1.411,2.16-1.42,2.584
			c-0.008,0.433-0.288,0.715-0.876,0.715h-1.021l-0.021-0.066l0.044-0.043C-3.247,3.143-3.248,3.088-3.289,2.97 M0.952,2.384h-1.698
			l-0.221-0.607H0.21l-1.336-0.454l-0.082-0.217l1.925,0.633L0.952,2.384z M-6.636,0.749h0.64l0.558,1.651l0.326-1.651h0.641
			L-3.598,3.3l-0.669-0.001l-0.466-1.387l-0.266,1.387h-0.902l-0.022-0.066l0.044-0.043c0.048-0.047,0.045-0.102,0.005-0.22
			L-6.636,0.749z M-11.224,0.747l1.741,0.001l0.21,0.608h-1.012l0.669,1.943h-0.873l-0.022-0.066l0.044-0.043
			c0.048-0.047,0.045-0.102,0.005-0.22L-11.224,0.747z M-7.52,2.594h0.023l0.012-0.771h-0.47L-7.52,2.594z M-9.302,0.749h0.741
			l0.321,0.564h0.767l0.008-0.564h0.672l-0.145,2.55h-1.006l-0.022-0.066l0.033-0.033C-7.882,3.149-7.904,3.074-8.1,2.763
			L-9.302,0.749z"/>
	</g>
</g>
</svg>
