<?xml version="1.0" encoding="utf-8"?>
<!-- Generator: Adobe Illustrator 16.0.0, SVG Export Plug-In . SVG Version: 6.00 Build 0)  -->
<!DOCTYPE svg PUBLIC "-//W3C//DTD SVG 1.1//EN" "http://www.w3.org/Graphics/SVG/1.1/DTD/svg11.dtd">
<svg version="1.1" id="Layer_1" xmlns="http://www.w3.org/2000/svg" xmlns:xlink="http://www.w3.org/1999/xlink" x="0px" y="0px"
	 width="200px" height="200px" viewBox="0 0 200 200" enable-background="new 0 0 200 200" xml:space="preserve">
<path d="M99.904,14.394c-46.75,0-84.65,37.9-84.65,84.651c0,46.75,37.9,84.65,84.65,84.65c46.75,0,84.651-37.901,84.651-84.65
	C184.555,52.294,146.654,14.394,99.904,14.394z M30.617,59.254C44.729,34.776,70.75,19.561,98.975,19.193L88.023,91.742
	l-57.848,46.749C16.282,113.865,16.43,83.73,30.617,59.254z M100.221,179.31c-28.299,0.146-54.54-14.699-69.021-39.031
	l68.727-28.447l69.02,28.006C154.614,164.24,128.448,179.235,100.221,179.31z M111.467,92.704L101.029,19.2
	c28.152,0.441,53.952,15.584,68.065,39.914c14.185,24.33,14.479,54.247,0.88,78.87L111.467,92.704z"/>
</svg>
