<?xml version="1.0" encoding="utf-8"?>
<!-- Generator: Adobe Illustrator 16.0.0, SVG Export Plug-In . SVG Version: 6.00 Build 0)  -->
<!DOCTYPE svg PUBLIC "-//W3C//DTD SVG 1.1//EN" "http://www.w3.org/Graphics/SVG/1.1/DTD/svg11.dtd">
<svg version="1.1"
	 id="Layer_1" xmlns:dc="http://purl.org/dc/elements/1.1/" xmlns:cc="http://creativecommons.org/ns#" xmlns:rdf="http://www.w3.org/1999/02/22-rdf-syntax-ns#" xmlns:svg="http://www.w3.org/2000/svg" xmlns:sodipodi="http://sodipodi.sourceforge.net/DTD/sodipodi-0.dtd" xmlns:inkscape="http://www.inkscape.org/namespaces/inkscape" inkscape:export-ydpi="561.73712" inkscape:export-xdpi="561.73712" inkscape:export-filename="C:\Users\alex\sites\nissan-logo-0.png" inkscape:version="0.92.3 (2405546, 2018-03-11)" sodipodi:docname="nissan-logo.svg"
	 xmlns="http://www.w3.org/2000/svg" xmlns:xlink="http://www.w3.org/1999/xlink" x="0px" y="0px" width="200px" height="200px"
	 viewBox="250 250 200 200" enable-background="new 250 250 200 200" xml:space="preserve">
<g id="Layer_1_1_" transform="matrix(1.0232287,0,0,1.0232287,92.146368,134.25223)" inkscape:export-ydpi="130.30649" inkscape:export-xdpi="130.30649" inkscape:export-filename="C:\Users\alex\sites\nissan-logo-5.png">
	<g id="Nissan_Badge_1_">
		<g id="g20">
			<path id="path4" inkscape:connector-curvature="0" d="M267.178,216.983c-0.145,0.036-0.728,0.036-0.982,0.036h-18.781v4.368
				h19.109c0.145,0,1.274,0,1.493-0.037c3.894-0.364,5.678-3.603,5.678-6.442c0-2.912-1.856-6.042-5.387-6.37
				c-0.692-0.073-1.274-0.073-1.529-0.073h-12.484c-0.547,0-1.165-0.036-1.384-0.11c-0.983-0.255-1.346-1.128-1.346-1.856
				c0-0.655,0.364-1.528,1.382-1.819c0.291-0.073,0.619-0.11,1.31-0.11h18.018v-4.295h-18.309c-0.764,0-1.347,0.036-1.82,0.109
				c-3.13,0.437-5.314,2.948-5.314,6.151c0,2.621,1.638,5.679,5.242,6.188c0.655,0.073,1.565,0.073,1.966,0.073h12.157
				c0.218,0,0.764,0,0.873,0.036c1.383,0.182,1.856,1.202,1.856,2.112C268.925,215.819,268.379,216.764,267.178,216.983z"/>
			<path id="path6" inkscape:connector-curvature="0" d="M231.581,216.983c-0.146,0.036-0.728,0.036-0.946,0.036h-18.818v4.368
				h19.109c0.146,0,1.274,0,1.492-0.037c3.894-0.364,5.678-3.603,5.678-6.442c0-2.912-1.856-6.042-5.387-6.37
				c-0.692-0.073-1.274-0.073-1.529-0.073h-12.484c-0.546,0-1.165-0.036-1.383-0.11c-0.983-0.255-1.347-1.128-1.347-1.856
				c0-0.655,0.364-1.528,1.383-1.819c0.291-0.073,0.618-0.11,1.31-0.11h18.017v-4.295h-18.308c-0.764,0-1.347,0.036-1.82,0.109
				c-3.13,0.437-5.314,2.948-5.314,6.151c0,2.621,1.638,5.679,5.242,6.188c0.655,0.073,1.565,0.073,1.966,0.073h12.157
				c0.219,0,0.764,0,0.874,0.036c1.383,0.182,1.856,1.202,1.856,2.112C233.328,215.819,232.818,216.764,231.581,216.983
				L231.581,216.983z"/>
			<rect id="rect8" x="197.294" y="200.13" width="4.732" height="21.366"/>
			<polygon id="polygon10" points="160.277,200.13 160.277,221.496 165.009,221.496 165.009,205.481 180.878,221.496 
				186.848,221.496 186.848,200.13 182.116,200.13 182.116,216.073 166.356,200.13 			"/>
			<polygon id="polygon12" points="321.921,221.496 321.921,205.481 337.753,221.496 343.723,221.496 343.723,200.13 
				339.027,200.13 339.027,216.073 323.267,200.13 317.189,200.13 317.189,221.496 			"/>
			<path id="path14" inkscape:connector-curvature="0" d="M292.547,200.13l-13.321,21.366h5.75l2.366-3.821h15.542l2.366,3.821
				h5.714l-13.321-21.366H292.547z M300.446,213.635h-10.665l5.351-8.591L300.446,213.635z"/>
			<path id="path16" inkscape:connector-curvature="0" d="M186.593,188.01c9.536-27.844,35.815-46.553,65.443-46.553
				c29.628,0,55.944,18.709,65.444,46.553l0.073,0.218h20.856v-2.511l-8.663-1.019c-5.35-0.618-6.478-2.984-7.935-5.969
				l-0.364-0.728c-12.521-26.644-39.783-43.896-69.411-43.896c-29.664,0-56.89,17.253-69.411,43.969l-0.364,0.728
				c-1.456,2.984-2.585,5.35-7.935,5.969l-8.663,1.019v2.512h20.82L186.593,188.01z"/>
			<path id="path18" inkscape:connector-curvature="0" d="M317.552,233.435l-0.073,0.219c-9.536,27.844-35.816,46.517-65.444,46.517
				l0,0c-29.628,0-55.944-18.709-65.443-46.553l-0.073-0.219H165.7v2.512l8.663,1.018c5.35,0.619,6.479,2.985,7.935,5.97
				l0.364,0.728c12.521,26.716,39.783,43.969,69.411,43.969l0,0c29.628,0,56.89-17.253,69.411-43.933l0.364-0.728
				c1.456-2.984,2.585-5.35,7.936-5.969l8.662-1.019v-2.512H317.552z"/>
		</g>
	</g>
</g>
</svg>
