<?xml version="1.0" encoding="utf-8"?>
<!-- Generator: Adobe Illustrator 16.0.0, SVG Export Plug-In . SVG Version: 6.00 Build 0)  -->
<!DOCTYPE svg PUBLIC "-//W3C//DTD SVG 1.1//EN" "http://www.w3.org/Graphics/SVG/1.1/DTD/svg11.dtd">
<svg version="1.1" id="katman_1" xmlns="http://www.w3.org/2000/svg" xmlns:xlink="http://www.w3.org/1999/xlink" x="0px" y="0px"
	 width="200px" height="200px" viewBox="197.64 320.945 200 200" enable-background="new 197.64 320.945 200 200"
	 xml:space="preserve">
<g>
	<path d="M297.559,340.895c5.191,0,10.319,0,15.51,0c7.178,0.129,14.419,0.385,21.597,0.641c6.538,0.256,13.011,0.577,19.547,1.025
		c4.166,0.192,8.332,0.641,12.434,1.41c0.897,0.192,1.731,0.448,2.563,0.705c2.115,0.705,3.718,2.436,4.294,4.614
		c0.514,1.923,0.77,3.91,0.77,5.896c0,10.703,0,21.342,0,31.98c0,6.921-0.191,13.843-0.385,20.829
		c-0.191,6.473-0.448,12.946-0.833,19.418c-0.385,6.474-0.705,12.754-1.603,19.099c-0.77,7.626-3.717,14.868-8.523,20.893
		c-4.102,4.742-8.973,8.717-14.421,11.792c-13.201,7.819-26.724,14.998-40.566,21.534c-2.372,1.089-4.808,2.243-7.115,3.461
		c-1.985,1.09-4.421,1.09-6.408,0c-5.96-2.756-11.792-5.769-17.624-8.78c-10.446-5.383-20.893-10.831-30.955-16.855
		c-6.024-3.396-11.216-8.074-15.317-13.587c-3.397-5.127-5.64-10.896-6.473-16.982c-0.769-4.808-1.089-9.613-1.41-14.484
		c-0.385-6.024-0.705-12.049-0.961-18.073c-0.192-3.269-0.192-6.537-0.256-9.869c-0.449-16.407-0.449-32.813-0.384-49.22
		c-0.064-2.115,0.128-4.23,0.577-6.345c0.448-2.756,2.563-5,5.255-5.704c2.435-0.641,4.935-1.026,7.498-1.217
		c8.139-0.833,16.471-1.154,24.738-1.475c6.345-0.256,12.625-0.448,18.97-0.641C284.292,340.832,291.022,340.895,297.559,340.895z
		 M297.559,344.997c-7.242,0-14.484,0-21.726,0.192c-5.191,0.128-10.382,0.321-15.574,0.577c-8.139,0.321-16.086,0.705-24.162,1.346
		c-2.371,0.128-4.678,0.449-6.985,1.026c-1.923,0.384-3.461,1.922-3.782,3.845c-0.256,1.154-0.384,2.372-0.384,3.589
		c0,4.742,0,9.485-0.192,14.228c-0.128,11.408-0.192,22.815,0.192,34.223c0,2.051,0,4.038,0.192,6.217
		c0.448,7.755,0.769,15.574,1.41,23.328c0.384,4.871,0.641,9.741,1.474,14.549c0.77,5.319,2.821,10.383,5.833,14.868
		c4.037,5.383,9.228,9.869,15.125,13.139c10.19,6.087,20.829,11.535,31.403,16.982c5.191,2.692,10.382,5.384,15.702,7.819
		c0.897,0.448,1.987,0.448,2.883,0c3.205-1.538,6.409-3.012,9.614-4.55c10.702-5.191,21.149-10.703,31.467-16.664
		c4.936-2.627,9.614-5.64,14.036-9.036c6.345-4.935,10.767-11.984,12.496-19.803c1.091-5.513,1.731-11.088,2.052-16.663
		c0.385-4.936,0.576-9.934,0.897-14.933c0.576-8.588,0.832-17.112,0.961-25.7c0-7.563,0.128-15.189,0-22.751
		c-0.129-4.871,0-9.806-0.129-14.676c0-1.026-0.064-2.051-0.191-3.077c-0.191-2.499-2.052-4.486-4.486-4.934
		c-2.051-0.577-4.166-0.898-6.28-1.026c-6.922-0.448-13.779-0.897-20.638-1.217c-8.33-0.385-16.727-0.641-25.122-0.833
		C308.198,344.805,302.878,344.997,297.559,344.997L297.559,344.997z"/>
	<path d="M277.435,433.759c0.833,2.308,1.603,4.295,2.307,6.281c0.192,0.385,0.577,0.705,0.961,0.833
		c2.051,1.153,4.038,2.307,6.089,3.461c0.705,0.32,1.153,0.961,1.217,1.73c0.833,5.704,1.73,11.343,2.564,17.047
		c0.063,0.897-0.064,1.858-0.257,2.756c-0.192,1.346-0.384,2.692-0.641,4.037c-0.128,0.449,0.129,0.898,0.577,1.025l0,0
		c2.051,0.834,4.038,1.731,6.216,2.628c0.385,0.192,0.897,0.192,1.282,0c2.179-0.832,4.422-1.73,6.601-2.563
		c0.449-0.064,0.77-0.512,0.705-0.961c0-0.064,0-0.129-0.064-0.192c-0.32-1.858-0.641-3.718-0.832-5.576
		c0-1.218,0.127-2.435,0.447-3.588c0.705-4.871,1.476-9.742,2.243-14.612c0.064-0.77,0.514-1.41,1.218-1.73
		c2.052-1.09,4.039-2.308,6.089-3.397c0.576-0.256,0.961-0.769,1.153-1.346c0.641-1.858,1.346-3.717,2.115-5.768
		c-1.475,0.257-2.757,0.577-4.037,0.77c-0.961,0.128-1.795,0.64-2.308,1.474c-0.834,1.153-1.73,2.308-2.628,3.396
		c-0.127,0.192-0.256,0.449-0.512,0.385c-0.257-0.064-0.193-0.385-0.129-0.642c0.514-3.268,0.961-6.536,1.41-9.805
		c0.064-0.642,0.513-1.218,1.153-1.346c2.243-0.77,4.422-1.603,6.665-2.308c0.513-0.128,0.962-0.577,1.026-1.09
		c0.385-2.435,0.832-4.806,1.281-7.242c0.128-0.449-0.064-0.897-0.449-1.089c-0.832-0.513-1.602-1.025-2.435-1.538
		c-0.449-0.192-0.641-0.705-0.449-1.089c2.114-7.627,5.769-14.741,10.64-21.021c2.947-3.781,6.984-6.473,11.535-7.819
		c8.139-2.179,14.548,0.705,18.458,8.331c1.923,3.782,2.884,7.947,2.756,12.177c0,0.833-0.321,1.153-1.153,1.218l-5.769,0.641
		c-0.77,0-1.154,0.385-1.347,1.218c-1.346,7.818-2.499,15.638-4.422,23.328c-0.641,2.948-1.729,5.832-3.075,8.588
		c-0.577,1.153-1.411,2.115-2.5,2.756c-1.475,0.77-2.563,0.32-2.948-1.281c-0.513-2.308-0.513-4.68,0-6.986
		c0.705-4.038,1.923-7.883,2.435-11.92c0.642-3.718,0.706-7.499,0.258-11.216c-0.193-1.539-0.77-3.012-1.731-4.23
		c-1.73-1.858-4.742-1.987-6.601-0.256c-0.32,0.32-0.641,0.705-0.897,1.089c-0.128,0.385-0.128,0.769,0,1.09
		c0.385,2.627,0.448,5.319,0.257,7.947c-0.257,3.525-2.052,6.729-4.871,8.716c-1.282,0.897-2.436,2.051-3.653,3.012
		c-0.385,0.321-0.641,0.834-0.77,1.282c-1.538,6.217-3.204,12.434-4.742,18.649c-0.961,2.948-2.371,5.704-4.037,8.268
		c-0.577,1.217-1.282,2.436-2.051,3.524c-1.73,2.372-1.795,5.192-2.308,7.883c-0.513,2.692-0.834,4.936-1.217,7.371
		c-0.257,2.628-2.243,4.678-4.871,5.127c-3.846,0.962-7.883,0.962-11.792,0c-2.5-0.514-4.422-2.563-4.678-5.127
		c-0.641-4.037-1.346-7.947-2.051-11.92c-0.129-0.514-0.32-1.026-0.577-1.538c-1.794-3.077-3.524-6.089-5.319-9.229
		c-0.833-1.41-1.41-2.948-1.858-4.551c-1.474-6.088-3.077-12.176-4.55-18.329c-0.192-0.704-0.578-1.41-1.154-1.858
		c-1.218-1.025-2.436-2.051-3.718-3.076c-2.627-1.986-4.229-5.063-4.486-8.332c-0.257-2.435-0.192-4.935,0.192-7.37
		c0.321-1.666-0.641-3.333-2.308-3.845c-2.371-1.025-5.063,0.064-6.088,2.436c0,0,0,0.064-0.064,0.064
		c-0.705,1.474-1.089,3.141-1.089,4.743c-0.128,5.896,0.641,11.728,2.179,17.432c0.833,2.82,1.154,5.769,1.089,8.716
		c0,0.77-0.128,1.475-0.384,2.243c-0.128,0.962-1.026,1.666-2.051,1.538c-0.321-0.063-0.577-0.128-0.833-0.32
		c-1.154-0.641-2.051-1.603-2.627-2.819c-1.602-3.205-2.756-6.666-3.461-10.19c-1.73-7.178-2.82-14.484-4.037-21.726
		c0-0.705-0.577-1.281-1.282-1.217l0,0l-5.832-0.641c-0.641,0-1.089-0.256-1.089-1.025c-0.321-5.96,1.602-11.792,5.383-16.342
		c3.46-4.294,9.165-6.152,14.484-4.679c5.576,1.346,10.511,4.614,13.779,9.357c4.038,5.448,7.114,11.6,9.101,18.073
		c0.833,2.435,0.833,2.435-1.41,3.845c-1.538,0.961-1.538,0.961-1.217,2.755c0.32,1.795,0.705,4.038,1.026,6.088
		c0.063,0.641,0.512,1.218,1.153,1.346c2.243,0.705,4.422,1.538,6.666,2.308c0.577,0.128,0.961,0.577,1.026,1.089
		c0.512,3.397,1.025,6.729,1.473,10.19c0,0.192,0.128,0.449-0.128,0.513c-0.256,0.064-0.32-0.192-0.448-0.32
		c-1.026-1.281-2.051-2.563-3.012-3.845c-0.385-0.514-0.897-0.834-1.538-0.962C280.576,434.464,279.101,434.144,277.435,433.759z
		 M271.155,423.25c-0.192-1.666-0.385-3.589-0.641-5.512c0-0.385-0.192-0.705-0.385-1.025l-3.653-4.807
		c-0.128-0.192-0.256-0.385-0.449-0.32c-0.192,0.128-0.192,0.256-0.192,0.448c-0.448,1.923-0.641,3.91-0.641,5.896
		c-0.063,2.564,1.603,4.871,4.038,5.64c0.384,0.192,0.833,0.32,1.218,0.513C271.09,424.467,271.283,424.147,271.155,423.25z
		 M328.898,411.265c-1.281,1.667-2.371,3.205-3.589,4.614c-0.641,0.705-1.025,1.603-1.09,2.564c-0.127,1.346-0.32,2.627-0.448,4.037
		c-0.192,2.051-0.192,2.051,1.795,1.218c2.179-0.642,3.781-2.5,4.037-4.807C329.859,416.392,329.603,413.764,328.898,411.265z"/>
	<path d="M231.419,408.06c0.384,0.577,0.705,1.154,1.025,1.794c0.257,0.77,1.025,1.218,1.859,1.154c0.897,0,1.858,0.192,2.755,0.192
		c0.898,0.064,1.089,0.32,1.218,1.153c1.217,9.934,3.845,19.611,7.883,28.775c1.474,3.589,3.653,6.858,6.409,9.613
		c1.217,1.282,2.884,2.114,4.679,2.243c1.153,0.256,2.307-0.512,2.563-1.73c0.513-1.666,0.769-3.396,0.706-5.19
		c0.192-2.692,0-5.448-0.513-8.14c0-0.192,0-0.32,0-0.513c0.513,0,0.513,0.513,0.577,0.77c1.41,4.229,2.115,8.651,2.051,13.073
		c-0.192,7.114-4.871,9.998-11.023,9.613c-4.422-0.256-8.524-2.243-11.408-5.512l-0.256-0.256h-0.256
		c1.025,1.986,2.243,3.845,3.781,5.447c3.524,3.717,7.69,6.857,12.177,9.293c13.266,7.626,26.853,14.611,40.568,21.342
		c0.641,0.32,1.41,0.32,2.05,0c8.652-3.781,17.048-8.012,25.315-12.434c6.089-3.204,12.178-6.602,18.009-10.189
		c5.127-2.82,9.549-6.858,12.883-11.664c0.641-0.961,1.153-1.987,1.538-3.077c-1.796,2.372-4.102,4.23-6.794,5.512
		c-3.332,1.603-7.113,1.987-10.703,1.089c-3.525-0.832-6.151-3.908-6.345-7.563c-0.32-5.062,0.32-10.125,2.052-14.932
		c0-0.256,0.127-0.641,0.641-0.77c-0.129,0.642-0.193,1.219-0.32,1.859c-0.449,3.524-0.449,7.05,0,10.51
		c0.384,3.27,1.923,4.294,5.319,2.756c1.794-0.961,3.332-2.371,4.486-4.037c3.203-4.551,5.704-9.549,7.305-14.869
		c2.308-6.793,3.91-13.778,4.807-20.828c0-0.833,0.385-1.218,1.282-1.218c0.896,0,2.052-0.32,2.948-0.256
		c0.897,0.064,1.794-0.577,2.051-1.474c0.128-0.321,0.257-0.705,0.641-0.897c0.257,0.256,0.129,0.513,0.129,0.769
		c0,3.141,0,6.281,0,9.421c0,8.459-1.091,16.919-3.141,25.123c-0.513,2.819-1.218,5.639-2.052,8.331
		c-2.114,5.512-5.831,10.317-10.638,13.778c-4.23,3.077-8.716,5.833-13.331,8.268c-8.523,4.871-17.304,9.485-26.147,13.716
		c-3.27,1.603-6.665,3.012-9.997,4.549c-0.578,0.321-1.282,0.321-1.859,0c-9.229-4.422-18.33-9.164-27.366-13.97
		c-5.254-2.757-10.382-5.576-15.509-8.652c-4.678-2.563-8.78-6.024-12.176-10.19c-2.371-3.076-4.102-6.665-5.063-10.446
		c-1.09-3.909-2.371-7.69-3.141-11.664c-0.96-5.063-1.602-10.19-1.73-15.381c-0.192-4.358,0-8.716,0-13.138
		C231.099,408.958,231.164,408.445,231.419,408.06z"/>
	<path d="M356.712,386.59l-1.858-3.204c-2.371-4.358-5.319-8.396-8.907-11.856c-3.398-3.525-8.012-5.576-12.883-5.832
		c-3.974-0.064-7.883,0.961-11.279,2.948c-5.128,3.076-9.485,7.242-12.882,12.177c-3.204,4.486-6.024,9.229-8.461,14.228
		c-0.127,0.449-0.447,0.897-0.832,1.153c-0.385-1.281-0.642-2.563-0.833-3.909c-0.193-0.961-0.256-2.051-0.576-2.948
		c-0.385-1.346-0.193-2.756,0.576-3.909c2.563-5.512,6.024-10.575,10.19-14.997c4.614-4.871,10.766-7.947,17.368-8.78
		c5.575-0.706,11.279,0.961,15.572,4.55c6.409,5.255,11.408,11.984,14.548,19.611c0.064,0.128,0.064,0.256,0.129,0.384
		C356.712,386.334,356.84,386.398,356.712,386.59z"/>
	<path d="M236.996,386.59c1.025-2.563,2.243-5.063,3.717-7.434c2.756-4.679,6.28-8.844,10.382-12.305
		c5.64-4.936,13.458-6.538,20.572-4.294c5.832,1.73,10.959,5.127,14.869,9.806c3.717,4.358,6.793,9.229,9.101,14.42
		c0.256,0.449,0.32,0.961,0.191,1.474c-0.448,2.372-0.897,4.807-1.281,7.178c0,0.257,0,0.641-0.257,0.705
		c-0.256,0.064-0.449-0.384-0.577-0.641c-2.564-5.384-5.64-10.511-9.101-15.317c-3.46-5.127-8.139-9.292-13.65-12.177
		c-7.691-3.717-14.997-3.14-21.727,2.435c-2.051,1.73-3.845,3.717-5.447,5.833c-2.115,2.884-4.038,5.896-5.769,9.1
		C237.765,385.95,237.444,386.334,236.996,386.59z"/>
	<path d="M234.368,387.488v17.304c0,0.32,0,0.705,0,1.025c-0.064,0.512-0.512,0.833-1.025,0.833c-0.448,0-0.257-0.577-0.32-0.833
		c-0.32-4.935-0.128-9.934-0.192-14.869c0-5.448,0-10.831,0-16.278c0-4.422,0-8.909,0.192-13.331c0-0.769,0.063-1.474,0.256-2.243
		c0.192-2.371,2.244-4.229,4.679-4.037c3.011-0.257,6.088-0.449,8.972-0.641l18.072-0.961c3.718-0.192,7.371-0.32,11.088-0.448
		c9.421-0.257,18.777-0.32,28.198-0.192c7.242,0.128,14.548,0.385,21.79,0.641c6.024,0.192,11.984,0.449,18.009,0.769
		c4.422,0.064,8.781,0.449,13.203,0.961c2.627,0.064,4.679,2.179,4.679,4.807c0,0.191,0,0.384-0.064,0.512
		c0.512,14.228,0.449,28.456,0.32,42.875c0,0.897,0,1.794-0.129,2.627c0,0.32,0.193,0.833-0.256,0.897
		c-0.513,0-0.961-0.32-1.089-0.769c-0.064-0.385-0.064-0.769,0-1.09c0-11.215,0-22.367,0-33.518c0-3.845,0-7.626-0.32-11.472
		c-0.193-2.051-0.77-2.755-2.757-3.205c-2.756-0.512-5.511-0.769-8.331-0.769c-8.779-0.448-17.624-0.769-26.468-1.089
		c-3.654-0.128-7.371-0.256-11.088-0.384c-9.229-0.32-18.521-0.32-27.75-0.192c-9.613,0.128-19.291,0.513-28.904,1.154
		c-5.191,0.32-10.446,0.577-15.638,0.897c-0.769,0-1.474,0.128-2.243,0.256c-1.282,0.128-2.307,1.089-2.499,2.371
		c-0.192,0.769-0.257,1.538-0.257,2.308v26.148h-0.128V387.488z"/>
</g>
</svg>
