<?xml version="1.0" encoding="utf-8"?>
<!-- Generator: Adobe Illustrator 16.0.0, SVG Export Plug-In . SVG Version: 6.00 Build 0)  -->
<!DOCTYPE svg PUBLIC "-//W3C//DTD SVG 1.1//EN" "http://www.w3.org/Graphics/SVG/1.1/DTD/svg11.dtd">
<svg version="1.1" id="katman_1" xmlns="http://www.w3.org/2000/svg" xmlns:xlink="http://www.w3.org/1999/xlink" x="0px" y="0px"
	 width="200px" height="200px" viewBox="197.64 320.945 200 200" enable-background="new 197.64 320.945 200 200"
	 xml:space="preserve">
<g>
	<g>
		<path fill="#1D1D1B" d="M228.315,411.782v2.479h4.094l7.961,14.946h9.802l7.961-14.984l4.093-0.038v-2.441h-12.205v2.441h3.229
			l-5.633,10.627l-6.084-10.589l4.431-0.038v-2.479h-17.65V411.782z M306.991,411.782v2.479h4.094l7.962,14.946h9.801l7.962-14.984
			l4.093-0.038v-2.441h-12.204v2.441h3.229l-5.633,10.627l-6.083-10.589l4.431-0.038v-2.479h-17.65V411.782z M286.9,411.782v2.479
			h4.093v12.204h-4.281v2.742l4.281,0.038h20.354v-8.112h-2.666c-0.149,4.282-3.869,5.371-5.445,5.371c-1.429,0-4.243,0-4.243,0
			v-12.206l4.019-0.038v-2.479H286.9z M273.192,411.256c-6.91,0-12.543,4.131-12.543,9.201s5.633,9.201,12.543,9.201
			s12.543-4.131,12.543-9.201S280.14,411.256,273.192,411.256z M273.005,426.991c-2.441,0-4.432-2.928-4.432-6.534
			c0-3.605,1.99-6.535,4.432-6.535c2.44,0,4.431,2.929,4.431,6.535C277.436,424.063,275.445,426.991,273.005,426.991z
			 M351.869,410.955c-6.911,0-12.544,4.207-12.544,9.352c0,5.182,5.633,9.351,12.544,9.351c6.91,0,12.543-4.206,12.543-9.351
			S358.816,410.955,351.869,410.955z M351.68,426.917c-2.44,0-4.431-2.967-4.431-6.647s1.99-6.647,4.431-6.647
			c2.441,0,4.433,2.966,4.433,6.647S354.122,426.917,351.68,426.917z"/>
	</g>
	<path fill="#1D1D1B" d="M343.005,335.021v1.877c5.633,2.929,10.966,6.459,15.811,10.515l-12.919,12.919
		c4.845,3.831,9.2,8.225,12.994,13.069l12.881-12.881c3.98,4.919,7.436,10.29,10.289,15.961h2.404v-41.46H343.005z"/>
	<path fill="#1D1D1B" d="M372.486,370.06l-9.652,8.9c7.849,12.13,12.431,26.588,12.431,42.136c0,42.812-34.7,77.511-77.511,77.511
		c-42.812,0-77.512-34.699-77.512-77.511c0-42.812,34.7-77.512,77.512-77.512c15.584,0,30.119,4.619,42.285,12.543l9.728-9.163
		c-14.796-10.44-32.747-16.524-52.125-16.524c-49.984,0-90.505,40.521-90.505,90.506s40.521,90.505,90.505,90.505
		s90.506-40.521,90.506-90.505C388.146,402.056,382.362,384.555,372.486,370.06z"/>
</g>
</svg>
