<?xml version="1.0" encoding="utf-8"?>
<!-- Generator: Adobe Illustrator 16.0.0, SVG Export Plug-In . SVG Version: 6.00 Build 0)  -->
<!DOCTYPE svg PUBLIC "-//W3C//DTD SVG 1.1//EN" "http://www.w3.org/Graphics/SVG/1.1/DTD/svg11.dtd">
<svg version="1.1" id="Layer_1" xmlns="http://www.w3.org/2000/svg" xmlns:xlink="http://www.w3.org/1999/xlink" x="0px" y="0px"
	 width="612px" height="143.25px" viewBox="0 0 612 143.25" enable-background="new 0 0 612 143.25" xml:space="preserve">
<g>
	<g>
		<g>
			<path fill="#1B75BB" d="M128.784,92.401c-1.552-7.524-18.919-21.159-18.919-21.159c-6.587-6.587,4.572-27.849-43.89-27.849
				c-48.46,0-35.463,19.425-43.888,27.849c0,0-17.352,13.658-18.896,21.159c-1.752,8.518,3.673,27.377,10.018,30.325
				c1.589,8.122,5.177,19.564,12.78,19.564c5.781,0,7.863-6.624,8.486-13.369c9.341,1.696,20.139,2.688,31.5,2.703
				c11.081,0.014,21.627-0.899,30.807-2.498c0.647,6.674,2.742,13.165,8.468,13.165c7.458,0,11.052-11.012,12.684-19.099
				C124.768,120.162,130.53,100.855,128.784,92.401z M65.974,118.37c-23.002,0-33.549-15.003-31.83-16.605
				c1.722-1.603,9.999,4.999,31.83,4.999c21.833,0,30.34-6.253,31.832-4.999C99.299,103.019,88.978,118.37,65.974,118.37z"/>
			<g>
				<path fill="#D2B431" d="M107.676,43.723l19.622-22.951l-26.667,3.236L93.351,2.114L75.965,17.431L54.623,1.393l7.774,32.067
					c3.273-0.081,6.926-0.016,11.01,0.208C93.116,34.754,102.755,38.818,107.676,43.723z"/>
			</g>
		</g>
	</g>
	<g>
		<path fill="#1B75BB" d="M178.743,59.005c-6.302,0-11.396,2.383-15.281,7.148c-3.885,4.765-5.828,11.913-5.828,21.443
			c0,9.529,1.943,16.677,5.828,21.443c3.885,4.764,8.979,7.147,15.281,7.147c3.044,0,6.038-0.891,8.979-2.679
			c2.939-1.785,5.513-4.198,7.72-7.245l11.34,10.083c-1.365,1.91-2.993,3.794-4.883,5.65c-1.89,1.857-4.043,3.5-6.457,4.933
			c-2.418,1.433-5.096,2.57-8.034,3.422c-2.941,0.846-6.145,1.272-9.61,1.272c-5.04,0-9.714-0.945-14.021-2.835
			c-4.307-1.891-8.078-4.672-11.312-8.35c-3.237-3.675-5.784-8.243-7.641-13.705c-1.855-5.459-2.784-11.814-2.784-19.06
			c0-7.247,0.928-13.626,2.784-19.139c1.856-5.514,4.455-10.106,7.798-13.785c3.342-3.675,7.297-6.458,11.866-8.347
			c4.567-1.891,9.582-2.836,15.043-2.836c6.405,0,12.074,1.445,17.012,4.332c4.936,2.889,8.665,6.907,11.185,12.05l-11.973,10.87
			c-1.889-4.095-4.201-7.088-6.93-8.979C186.091,59.95,182.732,59.005,178.743,59.005z"/>
		<path fill="#1B75BB" d="M264.239,121.385c-2.52,3.256-5.671,5.776-9.451,7.561c-3.781,1.784-8.191,2.678-13.232,2.678
			c-3.571,0-7.116-0.578-10.633-1.732c-3.52-1.155-6.67-2.915-9.452-5.277c-2.784-2.364-5.041-5.329-6.773-8.9
			c-1.733-3.569-2.6-7.822-2.6-12.761c0-4.619,0.839-8.635,2.52-12.049c1.68-3.412,3.991-6.223,6.932-8.428
			c2.939-2.205,6.38-3.859,10.318-4.961c3.938-1.103,8.216-1.656,12.838-1.656c4.514,0,8.322,0.659,11.42,1.97
			c3.097,1.315,5.592,2.811,7.483,4.49c0-3.885-0.265-7.326-0.788-10.318c-0.527-2.993-1.446-5.487-2.757-7.482
			c-1.314-1.994-3.151-3.518-5.514-4.569c-2.362-1.047-5.331-1.575-8.9-1.575c-4.202,0-8.033,0.685-11.499,2.049
			c-3.465,1.365-6.197,2.784-8.191,4.254l-6.773-12.761c2.415-2.205,6.011-4.147,10.791-5.828
			c4.777-1.679,10.474-2.521,17.091-2.521c10.815,0,18.719,2.993,23.708,8.979c4.987,5.986,7.482,15.492,7.482,28.512v50.565h-14.02
			V121.385z M263.609,95.394c-1.788-2.1-4.386-3.806-7.797-5.12c-3.415-1.312-7.169-1.97-11.264-1.97
			c-5.671,0-10.058,1.182-13.153,3.545c-3.1,2.363-4.647,6.064-4.647,11.104c0,4.727,1.575,8.351,4.726,10.87
			c3.15,2.521,7.403,3.78,12.759,3.78c2.205,0,4.332-0.34,6.38-1.024c2.047-0.682,3.938-1.52,5.671-2.52
			c1.732-0.996,3.229-2.15,4.489-3.465c1.26-1.312,2.206-2.6,2.836-3.859V95.394z"/>
		<path fill="#1B75BB" d="M301.848,43.405v10.402c1.678-3.254,4.224-5.774,7.639-7.562c3.412-1.785,7.061-2.678,10.949-2.678
			c2.205,0,4.355,0.315,6.457,0.946c2.1,0.629,3.883,1.68,5.356,3.15l-5.671,14.02c-3.047-2.1-6.041-3.15-8.979-3.15
			c-6.614,0-11.605,5.041-14.966,15.123v57.969H287.04V43.405H301.848z"/>
		<path fill="#1B75BB" d="M351.779,43.405v10.402c1.68-3.254,4.228-5.774,7.64-7.562c3.412-1.785,7.063-2.678,10.948-2.678
			c2.205,0,4.357,0.315,6.458,0.946c2.101,0.629,3.886,1.68,5.356,3.15l-5.671,14.02c-3.047-2.1-6.04-3.15-8.979-3.15
			c-6.614,0-11.604,5.041-14.964,15.123v57.969h-15.595V43.405H351.779z"/>
		<path fill="#1B75BB" d="M435.584,48.98c-1.51-0.989-3.11-1.85-4.806-2.576c-4.411-1.891-9.19-2.836-14.335-2.836
			c-5.254,0-10.058,0.946-14.414,2.836c-4.358,1.889-8.112,4.672-11.263,8.347c-3.149,3.678-5.62,8.271-7.403,13.785
			c-1.788,5.513-2.678,11.892-2.678,19.139c0,7.246,0.89,13.601,2.678,19.06c1.783,5.462,4.254,10.029,7.403,13.705
			c3.15,3.677,6.904,6.458,11.263,8.35c4.356,1.89,9.16,2.835,14.414,2.835c5.145,0,9.924-0.945,14.335-2.835
			c4.409-1.891,8.19-4.672,11.341-8.35c3.15-3.675,5.615-8.243,7.401-13.705c1.31-4,2.139-8.484,2.486-13.445L435.584,48.98z
			 M431.427,109.04c-3.662,4.764-8.63,7.147-14.905,7.147c-6.277,0-11.222-2.383-14.83-7.147
			c-3.607-4.766-5.411-11.914-5.411-21.443c0-9.531,1.804-16.679,5.411-21.443c3.608-4.765,8.553-7.148,14.83-7.148
			c6.275,0,11.243,2.383,14.905,7.148c3.662,4.765,5.493,11.913,5.493,21.443C436.92,97.126,435.089,104.274,431.427,109.04z"/>
	</g>
	<g>
		<path fill="#D2B431" d="M438.48,2.067l45.976,123.749L530.431,2.067l5.362,1.725l-51.337,138.499L433.115,3.792L438.48,2.067z"/>
		<path fill="#D2B431" d="M539.921,43.592v88.032h-6.018V43.592H539.921z"/>
		<path fill="#D2B431" d="M555.282,131.624V43.592c3.271-0.251,9.161-0.377,11.929-0.377c28.421,0,42.631,14.84,42.631,29.428
			c0,14.714-14.21,29.301-42.631,29.301c-1.889,0-3.773-0.125-5.911-0.251v29.931H555.282z M561.3,49.357v46.319
			c2.011,0.125,4.149,0.25,5.911,0.25c25.906,0,36.613-10.458,36.613-23.285s-10.707-23.411-36.613-23.411
			C565.449,49.231,563.438,49.231,561.3,49.357z"/>
	</g>
</g>
</svg>
