<?xml version="1.0" encoding="utf-8"?>
<!-- Generator: Adobe Illustrator 16.0.0, SVG Export Plug-In . SVG Version: 6.00 Build 0)  -->
<!DOCTYPE svg PUBLIC "-//W3C//DTD SVG 1.1//EN" "http://www.w3.org/Graphics/SVG/1.1/DTD/svg11.dtd">
<svg version="1.1" id="Layer_1" xmlns="http://www.w3.org/2000/svg" xmlns:xlink="http://www.w3.org/1999/xlink" x="0px" y="0px"
	 width="151px" height="165.951px" viewBox="0 0 151 165.951" enable-background="new 0 0 151 165.951" xml:space="preserve">
<g>
	<path fill="#1B75BB" d="M148.643,107.044c-1.803-8.734-21.961-24.56-21.961-24.56c-7.646-7.646,5.308-32.325-50.944-32.325
		c-56.251,0-41.163,22.547-50.941,32.325c0,0-20.142,15.853-21.934,24.56c-2.032,9.888,4.264,31.776,11.629,35.2
		c1.845,9.427,6.007,22.708,14.833,22.708c6.713,0,9.127-7.688,9.85-15.518c10.843,1.969,23.377,3.121,36.563,3.137
		c12.862,0.016,25.103-1.044,35.757-2.899c0.752,7.747,3.185,15.28,9.829,15.28c8.659,0,12.829-12.781,14.725-22.167
		C143.98,139.266,150.669,116.856,148.643,107.044z M75.737,137.188c-26.699,0-38.943-17.416-36.946-19.274
		c1.999-1.86,11.606,5.802,36.946,5.802c25.342,0,35.216-7.259,36.947-5.802C114.417,119.367,102.438,137.188,75.737,137.188z"/>
	<g>
		<path fill="#D2B431" d="M124.142,50.541l22.775-26.64l-30.953,3.758l-8.449-25.414l-20.18,17.779L62.562,1.408l9.023,37.22
			c3.799-0.091,8.04-0.019,12.779,0.242C107.242,40.13,118.429,44.848,124.142,50.541z"/>
	</g>
</g>
</svg>
