<?xml version="1.0" encoding="utf-8"?>
<!-- Generator: Adobe Illustrator 16.0.0, SVG Export Plug-In . SVG Version: 6.00 Build 0)  -->
<!DOCTYPE svg PUBLIC "-//W3C//DTD SVG 1.1//EN" "http://www.w3.org/Graphics/SVG/1.1/DTD/svg11.dtd">
<svg version="1.1" id="Layer_1" xmlns="http://www.w3.org/2000/svg" xmlns:xlink="http://www.w3.org/1999/xlink" x="0px" y="0px"
	 width="612px" height="165.951px" viewBox="0 0 612 165.951" enable-background="new 0 0 612 165.951" xml:space="preserve">
<g>
	<g>
		<path fill="#D2B431" d="M540.701,152.418H528.32V65.79c0-3.698-1.531-5.549-4.595-5.549h-19.251v92.178h-11.616V60.24h-22.122
			c-1.149,0-1.725,0.581-1.725,1.734v90.443h-12.38V57.563c0-4.969,2.744-7.457,8.234-7.457h58.218
			c11.743,0,17.617,3.073,17.617,16.945V152.418z"/>
	</g>
	<g>
		<path fill="#D2B431" d="M607.193,152.418h-35.427c-11.748,0-17.619-3.073-17.619-16.945V67.052
			c0-13.872,5.871-16.945,17.619-16.945h20.874c11.743,0,17.617,3.073,17.617,16.945v38.545c0,4.855-2.872,7.283-8.617,7.283
			h-34.347v23.854c0,3.702,1.467,5.549,4.404,5.549h35.495V152.418z M595.771,102.351c1.02,0,1.531-0.634,1.531-1.909V65.27
			c0-3.929-1.469-5.896-4.404-5.896h-21.2c-2.938,0-4.404,1.967-4.404,5.896v37.082H595.771z"/>
	</g>
	<g>
		<path fill="#1B75BB" d="M441.143,107.044c-1.803-8.734-21.961-24.56-21.961-24.56c-7.646-7.646,5.308-32.325-50.944-32.325
			c-56.251,0-41.163,22.547-50.941,32.325c0,0-20.142,15.853-21.934,24.56c-2.032,9.888,4.264,31.776,11.629,35.2
			c1.845,9.427,6.007,22.708,14.833,22.708c6.713,0,9.127-7.688,9.85-15.518c10.843,1.969,23.377,3.121,36.563,3.137
			c12.862,0.016,25.103-1.044,35.757-2.899c0.752,7.747,3.185,15.28,9.829,15.28c8.659,0,12.829-12.781,14.725-22.167
			C436.48,139.266,443.169,116.856,441.143,107.044z M368.237,137.188c-26.699,0-38.943-17.416-36.946-19.274
			c1.999-1.86,11.606,5.802,36.946,5.802c25.342,0,35.216-7.259,36.947-5.802C406.917,119.367,394.938,137.188,368.237,137.188z"/>
		<g>
			<path fill="#D2B431" d="M416.642,50.541l22.775-26.64l-30.953,3.758l-8.449-25.414l-20.18,17.779L355.062,1.408l9.023,37.22
				c3.799-0.091,8.04-0.019,12.779,0.242C399.742,40.13,410.929,44.848,416.642,50.541z"/>
		</g>
	</g>
	<path fill="#1B75BB" d="M60.235,131.608c0,13.874-5.874,20.81-17.618,20.81H21.36c-11.748,0-17.618-6.937-17.618-20.81V70.916
		c0-13.873,5.87-20.809,17.618-20.809h18.001V26.03h20.874V131.608z M34.765,134.556c3.064,0,4.596-1.847,4.596-5.549v-61.04H29.02
		c-2.938,0-4.404,1.851-4.404,5.549v55.491c0,3.702,1.466,5.549,4.404,5.549H34.765z"/>
	<path fill="#1B75BB" d="M94.555,152.418H73.681V57.563c0-4.969,2.745-7.456,8.235-7.456h28.917v17.86H96.087
		c-1.023,0-1.532,0.58-1.532,1.735V152.418z"/>
	<path fill="#1B75BB" d="M143.43,152.418h-20.874V50.107h20.874V152.418z"/>
	<path fill="#1B75BB" d="M204.179,146.869c-0.382,3.7-2.809,5.549-7.276,5.549h-23.172c-4.854,0-7.469-1.849-7.852-5.549
		l-11.681-96.762h21.64l7.277,82.022c0,0.693,0.446,1.041,1.341,1.041h1.149c0.766,0,1.149-0.348,1.149-1.041l7.277-82.022h21.64
		L204.179,146.869z"/>
	<path fill="#1B75BB" d="M277.761,152.418h-35.428c-11.748,0-17.619-6.937-17.619-20.81V70.916c0-13.873,5.871-20.809,17.619-20.809
		h20.874c11.744,0,17.618,6.936,17.618,20.809v34.682c0,4.855-2.872,7.283-8.617,7.283h-26.619v16.127
		c0,3.702,1.466,5.549,4.405,5.549h27.768V152.418z M258.611,98.488c1.02,0,1.532-0.634,1.532-1.907V72.997
		c0-3.929-1.469-5.896-4.405-5.896h-5.745c-2.938,0-4.405,1.967-4.405,5.896v25.491H258.611z"/>
	<path fill="#1B75BB" d="M143.43,39.134h-20.874V26.03h20.874V39.134z"/>
</g>
</svg>
