<?xml version="1.0" encoding="utf-8"?>
<!-- Generator: Adobe Illustrator 16.0.0, SVG Export Plug-In . SVG Version: 6.00 Build 0)  -->
<!DOCTYPE svg PUBLIC "-//W3C//DTD SVG 1.1//EN" "http://www.w3.org/Graphics/SVG/1.1/DTD/svg11.dtd">
<svg version="1.1" id="Layer_1" xmlns="http://www.w3.org/2000/svg" xmlns:xlink="http://www.w3.org/1999/xlink" x="0px" y="0px"
	 width="569.25px" height="142.125px" viewBox="0 0 569.25 142.125" enable-background="new 0 0 569.25 142.125"
	 xml:space="preserve">
<g id="Layer_1_2_" display="none">
	<g id="Layer_1_1_" display="inline">
		<g>
			<g>
				<g>
					<path fill="#1B75BB" d="M126.534,91.65c-1.554-7.523-18.919-21.158-18.919-21.158c-6.589-6.587,4.57-27.849-43.892-27.849
						c-48.46,0-35.463,19.425-43.888,27.849c0,0-17.354,13.658-18.896,21.158c-1.752,8.519,3.673,27.377,10.02,30.326
						c1.589,8.121,5.177,19.563,12.778,19.563c5.781,0,7.863-6.624,8.486-13.369c9.341,1.696,20.139,2.688,31.5,2.703
						c11.081,0.016,21.627-0.898,30.809-2.498c0.646,6.674,2.74,13.165,8.468,13.165c7.458,0,11.052-11.013,12.684-19.101
						C122.518,119.412,128.28,100.105,126.534,91.65z M63.724,117.62c-23.002,0-33.549-15.003-31.83-16.604
						c1.724-1.604,9.999,4.998,31.83,4.998c21.833,0,30.34-6.253,31.832-4.998C97.049,102.27,86.728,117.62,63.724,117.62z"/>
					<g>
						<path fill="#D2B431" d="M105.426,42.973l19.622-22.951L98.38,23.258L91.101,1.364L73.715,16.681L52.373,0.643l7.772,32.067
							c3.273-0.081,6.927-0.016,11.012,0.208C90.866,34.004,100.505,38.068,105.426,42.973z"/>
					</g>
				</g>
			</g>
			<g>
				<path fill="#1B75BB" d="M174.02,67.738c-5.877,0-10.628,2.083-14.251,6.249c-3.623,4.164-5.436,10.414-5.436,18.744
					s1.813,14.578,5.436,18.744s8.375,6.248,14.251,6.248c2.839,0,5.63-0.779,8.374-2.342c2.741-1.561,5.144-3.669,7.199-6.333
					l10.577,8.813c-1.273,1.67-2.792,3.313-4.554,4.938c-1.765,1.624-3.771,3.063-6.022,4.313c-2.254,1.254-4.752,2.246-7.493,2.99
					c-2.743,0.739-5.729,1.111-8.963,1.111c-4.701,0-9.06-0.826-13.076-2.479c-4.016-1.653-7.534-4.084-10.55-7.299
					c-3.019-3.213-5.395-7.207-7.126-11.979c-1.73-4.771-2.596-10.327-2.596-16.661c0-6.335,0.864-11.91,2.596-16.729
					c1.732-4.82,4.155-8.834,7.273-12.05c3.115-3.212,6.806-5.645,11.065-7.296c4.26-1.653,8.938-2.479,14.03-2.479
					c5.973,0,11.26,1.263,15.865,3.786c4.604,2.525,8.081,6.038,10.431,10.534l-11.166,9.501c-1.762-3.58-3.917-6.196-6.463-7.853
					C180.873,68.563,177.74,67.738,174.02,67.738z"/>
				<path fill="#1B75BB" d="M253.756,122.268c-2.353,2.849-5.289,5.049-8.814,6.608s-7.639,2.341-12.341,2.341
					c-3.331,0-6.636-0.505-9.917-1.515c-3.283-1.011-6.221-2.547-8.813-4.613c-2.598-2.065-4.701-4.657-6.317-7.78
					c-1.617-3.119-2.424-6.838-2.424-11.151c0-4.038,0.783-7.552,2.35-10.533c1.567-2.979,3.725-5.438,6.465-7.367
					c2.741-1.928,5.95-3.373,9.623-4.336c3.674-0.964,7.663-1.444,11.975-1.444c4.21,0,7.762,0.572,10.649,1.721
					c2.89,1.146,5.215,2.457,6.979,3.926c0-3.396-0.247-6.404-0.735-9.02c-0.492-2.617-1.349-4.799-2.571-6.541
					c-1.226-1.747-2.938-3.079-5.142-3.998c-2.203-0.916-4.972-1.377-8.3-1.377c-3.919,0-7.493,0.599-10.727,1.791
					c-3.23,1.193-5.778,2.434-7.64,3.719l-6.317-11.155c2.254-1.928,5.606-3.625,10.063-5.094c4.456-1.467,9.769-2.204,15.939-2.204
					c10.087,0,17.458,2.616,22.108,7.848c4.651,5.233,6.979,13.542,6.979,24.927v44.199h-13.075v-8.945h0.002L253.756,122.268
					L253.756,122.268z M253.169,99.546c-1.667-1.835-4.091-3.327-7.271-4.476c-3.185-1.146-6.687-1.721-10.505-1.721
					c-5.29,0-9.38,1.029-12.268,3.099c-2.893,2.065-4.333,5.301-4.333,9.707c0,4.131,1.469,7.299,4.407,9.502
					c2.938,2.202,6.902,3.305,11.897,3.305c2.057,0,4.04-0.297,5.95-0.896c1.909-0.6,3.672-1.33,5.289-2.203
					c1.616-0.871,3.012-1.881,4.187-3.029c1.175-1.146,2.059-2.271,2.646-3.374L253.169,99.546L253.169,99.546z"/>
				<path fill="#1B75BB" d="M288.832,54.101v9.093c1.563-2.844,3.938-5.047,7.124-6.61c3.183-1.561,6.583-2.341,10.212-2.341
					c2.057,0,4.063,0.275,6.021,0.827c1.959,0.55,3.619,1.469,4.995,2.753l-5.287,12.255c-2.845-1.835-5.637-2.754-8.374-2.754
					c-6.17,0-13.959,6.347-13.959,15.219v48.673h-14.543V54.101H288.832z"/>
				<path fill="#1B75BB" d="M335.399,54.101v9.093c1.563-2.844,3.941-5.047,7.125-6.61c3.182-1.561,6.587-2.341,10.211-2.341
					c2.057,0,4.063,0.275,6.021,0.827c1.959,0.55,3.624,1.469,4.997,2.753l-5.288,12.255c-2.845-1.835-5.637-2.754-8.375-2.754
					c-6.17,0-13.958,6.097-13.958,15.219v48.673H321.59V54.101H335.399z"/>
				<path fill="#1B75BB" d="M413.557,58.974c-1.404-0.865-2.898-1.618-4.479-2.251c-4.114-1.653-8.571-2.479-13.37-2.479
					c-4.899,0-9.381,0.827-13.44,2.479c-4.063,1.651-7.564,4.084-10.505,7.296c-2.938,3.215-5.238,7.229-6.903,12.049
					c-1.667,4.82-2.497,10.396-2.497,16.729s0.83,11.891,2.497,16.661c1.665,4.772,3.968,8.769,6.903,11.979
					c2.938,3.215,6.438,5.646,10.505,7.301c4.063,1.65,8.541,2.478,13.44,2.478c4.799,0,9.256-0.825,13.37-2.478
					c4.111-1.653,7.639-4.086,10.575-7.301c2.938-3.213,5.234-7.205,6.901-11.979c1.224-3.497,1.994-7.416,2.319-11.753
					L413.557,58.974z M409.681,111.475c-3.415,4.166-8.05,6.248-13.898,6.248c-5.854,0-10.467-2.082-13.833-6.248
					c-3.361-4.166-5.044-10.414-5.044-18.744s1.683-14.58,5.044-18.744c3.366-4.167,7.979-6.249,13.833-6.249
					c5.853,0,10.483,2.083,13.898,6.249c3.416,4.164,5.122,10.414,5.122,18.744S413.097,107.309,409.681,111.475z"/>
			</g>
			<g>
				<path fill="#D2B431" d="M507.596,54.264v76.953h-5.262V54.264H507.596z"/>
				<path fill="#D2B431" d="M521.023,131.217V54.264c2.857-0.219,8.008-0.33,10.428-0.33c24.846,0,37.268,12.972,37.268,25.724
					c0,12.861-12.422,25.613-37.268,25.613c-1.65,0-3.299-0.108-5.168-0.222v26.164L521.023,131.217L521.023,131.217z
					 M526.281,59.304v40.49c1.759,0.11,3.627,0.22,5.168,0.22c22.646,0,32.005-9.143,32.005-20.354s-9.358-20.464-32.005-20.464
					C529.908,59.194,528.152,59.194,526.281,59.304z"/>
				<g>
					<polygon fill="#D2B431" points="507.596,1.521 501.93,1.521 459.111,127.141 432.397,54.243 427.115,54.243 459.111,141.541 
											"/>
				</g>
			</g>
		</g>
	</g>
	<g display="inline">
		<g>
			<g>
				<path fill="#1B75BB" d="M197.642,88.957c-1.524-7.389-18.575-20.773-18.575-20.773c-6.469-6.468,4.489-27.343-43.093-27.343
					c-47.579,0-34.816,19.072-43.088,27.343c0,0-17.038,13.408-18.553,20.773c-1.721,8.363,3.605,26.878,9.835,29.773
					c1.562,7.973,5.083,19.207,12.549,19.207c5.677,0,7.72-6.506,8.331-13.125c9.171,1.664,19.773,2.638,30.927,2.649
					c10.881,0.017,21.234-0.882,30.248-2.448c0.635,6.551,2.693,12.924,8.313,12.924c7.324,0,10.853-10.813,12.457-18.75
					C193.7,116.211,199.356,97.257,197.642,88.957z M135.974,114.455c-22.583,0-32.938-14.73-31.249-16.305
					c1.689-1.575,9.815,4.906,31.249,4.906c21.438,0,29.788-6.141,31.254-4.906C168.692,99.379,158.56,114.455,135.974,114.455z"/>
			</g>
		</g>
		<g>
			<g>
				<g>
					<path fill="#D2B431" d="M176.517,41.397l19.19-22.445l-26.08,3.165l-7.121-21.413l-17.002,14.982L124.632,0l7.604,31.361
						c3.199-0.077,6.774-0.015,10.766,0.204C162.278,32.627,171.704,36.601,176.517,41.397z"/>
				</g>
			</g>
		</g>
		<g>
			<path fill="#1B75BB" d="M259.205,83.463l33.57,44.027H261.12l-17.082-25.473v25.473h-25.474V11l25.474-11v66.677l17.082-25.621
				h31.657L259.205,83.463z"/>
			<path fill="#1B75BB" d="M332.976,66.677c-3.824,0-5.739,2.063-5.739,6.188v54.627h-25.623V61.523
				c0-2.944,0.487-5.644,1.475-8.098c0.979-2.453,2.38-4.588,4.194-6.406c1.814-1.815,3.979-3.24,6.479-4.27
				c2.504-1.029,5.229-1.545,8.173-1.545H350.5v25.473H332.976z"/>
			<path fill="#1B75BB" d="M390.698,66.677c-3.829,0-5.741,2.063-5.741,6.188v54.627h-25.621V61.523c0-2.944,0.49-5.644,1.471-8.098
				c0.979-2.453,2.383-4.588,4.197-6.406c1.815-1.815,3.979-3.24,6.48-4.27c2.5-1.029,5.228-1.545,8.17-1.545h28.563v25.473H390.698
				z"/>
			<path fill="#1B75BB" d="M495.243,107.316c0,13.548-6.577,20.271-19.731,20.174h-37.841c-13.746,0-20.615-6.527-20.615-19.584
				v-46.53c0-13.547,6.725-20.321,20.172-20.321h37.99c13.351,0,20.025,6.824,20.025,20.468V107.316z M463.145,102.018
				c4.515,0,6.771-2.307,6.771-6.92V73.01c0-4.22-2.355-6.333-7.067-6.333h-14.43c-3.929,0-5.892,2.208-5.892,6.628v21.498
				c0,4.813,1.916,7.215,5.743,7.215H463.145z"/>
		</g>
	</g>
</g>
<g>
	<path fill="#1B75BB" d="M339.768,66.21c0-4.431,0.772-8.612,2.298-12.427c1.448-3.626,3.521-6.863,6.157-9.649h-34.068
		c-3.202,0-6.16,0.562-8.88,1.679c-2.719,1.12-5.066,2.668-7.039,4.64c-1.975,1.975-3.497,4.294-4.56,6.959
		c-1.068,2.667-1.603,5.599-1.603,8.799v71.669h27.839V78.527c0-4.479,2.08-6.719,6.238-6.719h13.616L339.768,66.21L339.768,66.21z"
		/>
</g>
<g>
	<path fill="#1B75BB" d="M491.974,115.962c0,14.72-7.146,22.022-21.438,21.917h-41.112c-14.934,0-22.396-7.091-22.396-21.277V66.05
		c0-14.718,7.304-22.078,21.915-22.078h41.274c14.503,0,21.757,7.415,21.757,22.238L491.974,115.962L491.974,115.962z
		 M457.099,110.203c4.903,0,7.359-2.505,7.359-7.518V78.688c0-4.584-2.563-6.879-7.681-6.879H441.1c-4.267,0-6.399,2.399-6.399,7.2
		v23.356c0,5.227,2.082,7.838,6.241,7.838H457.099z"/>
	<g>
		<path fill="#1B75BB" d="M397.244,66.05c0-9.117,2.334-16.473,6.929-21.917h-32.546c-3.197,0-6.16,0.562-8.877,1.679
			c-2.719,1.12-5.067,2.668-7.041,4.64c-1.974,1.975-3.495,4.294-4.56,6.959c-1.065,2.667-1.601,5.599-1.601,8.799v71.669h27.837
			V78.527c0-4.479,2.08-6.719,6.239-6.719h13.618L397.244,66.05L397.244,66.05z"/>
	</g>
</g>
<g>
	<g>
		<g>
			<path fill="#1B75BB" d="M200.913,88.957c-1.524-7.389-18.575-20.773-18.575-20.773c-6.469-6.468,4.489-27.343-43.093-27.343
				c-47.579,0-34.816,19.072-43.088,27.343c0,0-17.038,13.408-18.553,20.773c-1.721,8.363,3.605,26.878,9.835,29.773
				c1.562,7.973,5.083,19.207,12.549,19.207c5.677,0,7.72-6.506,8.331-13.125c9.171,1.664,19.773,2.638,30.927,2.649
				c10.881,0.017,21.234-0.882,30.248-2.448c0.635,6.551,2.693,12.924,8.313,12.924c7.324,0,10.853-10.813,12.457-18.75
				C196.971,116.211,202.627,97.257,200.913,88.957z M139.245,114.455c-22.583,0-32.938-14.73-31.249-16.305
				c1.689-1.575,9.815,4.906,31.249,4.906c21.438,0,29.788-6.141,31.254-4.906C171.963,99.379,161.831,114.455,139.245,114.455z"/>
		</g>
	</g>
</g>
<g>
	<g>
		<g>
			<g>
				<path fill="#D2B431" d="M179.788,41.397l19.19-22.445l-26.08,3.165l-7.121-21.413l-17.002,14.982L127.903,0l7.604,31.361
					c3.199-0.077,6.774-0.015,10.766,0.204C165.549,32.627,174.975,36.601,179.788,41.397z"/>
				<polygon fill="#1B75BB" points="290.9,43.972 259.808,43.972 238.25,71.809 238.25,11 229.303,11.03 210.835,30.934 
					210.835,137.879 238.25,137.879 238.25,109.203 255.808,137.879 282.291,137.879 282.291,129.191 254.728,90.047 				"/>
			</g>
		</g>
	</g>
</g>
</svg>
