<svg width="160" height="26" viewBox="0 0 160 26" fill="none" xmlns="http://www.w3.org/2000/svg">
<path d="M46.7891 10.7607L45.1631 10.6436C43.6104 10.6436 42.6143 11.1318 42.1748 12.1084V22.1426H37.2383V6.29297H41.8672L42.0283 8.3291C42.8584 6.77637 44.0156 6 45.5 6C46.0273 6 46.4863 6.05859 46.877 6.17578L46.7891 10.7607Z" fill="white"/>
<path d="M10.4922 13.8457H9.98489L9.99224 14.3529C10.0005 14.926 9.84545 15.3094 9.58428 15.5719C9.32255 15.8256 8.92651 15.9844 8.32422 15.9844C7.63718 15.9844 7.20786 15.7424 6.93295 15.2983C6.63249 14.813 6.43652 13.8371 6.43652 12.251C6.43652 11.3512 6.47061 10.6635 6.53476 10.1778L6.53478 10.1776C6.63498 9.41698 6.85119 8.91877 7.12917 8.61535C7.39283 8.32756 7.75669 8.16602 8.28027 8.16602C8.83418 8.16602 9.22949 8.34089 9.522 8.66194C9.81116 8.97931 9.99219 9.47149 9.99219 10.2148V10.7148H10.4922H15.1211H15.6211V10.2148C15.6211 8.15 14.9763 6.46109 13.6478 5.20762C12.3233 3.95783 10.5537 3.35742 8.39746 3.35742C6.80042 3.35742 5.39072 3.70603 4.18764 4.42327C2.98474 5.13061 2.06473 6.14939 1.42887 7.46279L1.42814 7.4643C0.804394 8.76378 0.5 10.2512 0.5 11.9141V12.1191C0.5 14.7639 1.18792 16.9005 2.62402 18.4633C4.06346 20.0298 6.0234 20.793 8.44141 20.793C10.504 20.793 12.2315 20.2053 13.5793 18.9958C14.94 17.7837 15.6211 16.2201 15.6211 14.3457V13.8457H15.1211H10.4922ZM25.6978 20.2394L25.8399 20.5H26.1367H31.0732H31.5732V20V19.751V19.6211L31.5101 19.5077C31.1391 18.8417 30.9188 17.8258 30.8994 16.4078V9.39453H30.8995L30.8993 9.38601C30.8679 7.54247 30.2164 6.0458 28.9196 4.95438C27.6322 3.87082 25.9088 3.35742 23.8076 3.35742C21.7065 3.35742 19.9308 3.85567 18.5173 4.88938L18.5159 4.89044C17.097 5.93594 16.3643 7.32676 16.3643 9.02832V9.52832H16.8643H21.8008H22.3008V9.02832C22.3008 8.53137 22.4265 8.25001 22.5908 8.08845C22.7567 7.92535 23.0476 7.7998 23.5586 7.7998C24.0911 7.7998 24.4052 7.95023 24.5978 8.17273C24.8024 8.40902 24.9482 8.8157 24.9482 9.48242V9.81738H23.9248C21.4547 9.81738 19.4915 10.2635 18.1031 11.2246C16.6818 12.2086 15.9834 13.6711 15.9834 15.5322C15.9834 17.0463 16.5702 18.3209 17.7228 19.3227L17.7248 19.3244C18.8683 20.3077 20.2565 20.793 21.8594 20.793C23.2764 20.793 24.4731 20.3887 25.4153 19.567C25.5005 19.8241 25.5941 20.0494 25.6978 20.2394ZM24.299 15.9612L24.2989 15.9612L24.2943 15.9643C23.9958 16.1608 23.5908 16.2773 23.0459 16.2773C22.6833 16.2773 22.4239 16.1754 22.2271 15.9991C22.0365 15.8193 21.9346 15.5905 21.9346 15.2686C21.9346 14.5889 22.1214 14.1667 22.4131 13.9048C22.7151 13.6337 23.2179 13.4541 24.0127 13.4541H24.9482V15.3533C24.8163 15.5576 24.6079 15.7626 24.299 15.9612ZM42.6975 8.11687L43.2232 8.15476L43.2333 7.62775L43.3212 3.04279L43.3285 2.66334L42.965 2.55429C42.5164 2.41972 42.0069 2.35742 41.4443 2.35742C40.2045 2.35742 39.1749 2.83993 38.3603 3.74754L38.31 3.11095L38.2735 2.65039H37.8115H33.1826H32.6826V3.15039V19V19.5H33.1826H38.1191H38.6191V19V9.07991C38.9631 8.41643 39.7055 8.00447 41.0897 8.001L42.6975 8.11687Z" fill="#D2B432" stroke="#1B75BB"/>
<path d="M56.6397 20.5581C55.4603 20.5581 54.3754 20.2375 53.385 19.5962C52.4036 18.9457 51.6338 18.0571 51.0756 16.9302C50.5174 15.8034 50.2383 14.5529 50.2383 13.1786V12.5603C50.2383 11.186 50.5084 9.92636 51.0486 8.78118C51.5888 7.63601 52.3316 6.74278 53.2769 6.10148C54.2223 5.46018 55.2532 5.13953 56.3696 5.13953C57.9992 5.13953 59.3317 5.73044 60.3671 6.91226C61.4025 8.09408 61.9202 9.64693 61.9202 11.5708V12.3541H50.9676V13.1649C50.9676 14.3742 51.2152 15.4965 51.7103 16.5317C52.2145 17.5578 52.9033 18.364 53.7766 18.9503C54.659 19.5366 55.6133 19.8298 56.6397 19.8298C57.6211 19.8298 58.4539 19.6649 59.1382 19.3351C59.8314 18.9961 60.4437 18.4785 60.9749 17.7822L61.4881 18.1533C60.3986 19.7565 58.7825 20.5581 56.6397 20.5581ZM56.3696 5.88161C54.9471 5.88161 53.7406 6.42213 52.7502 7.50317C51.7599 8.57505 51.1791 9.94468 51.0081 11.6121H61.191V11.4334C61.191 10.4257 60.9794 9.49119 60.5562 8.63002C60.1421 7.75969 59.5658 7.08633 58.8276 6.60994C58.0983 6.12438 57.279 5.88161 56.3696 5.88161Z" fill="white"/>
<path d="M76.4923 12.9863C76.4923 15.3041 76.0016 17.1455 75.0202 18.5106C74.0388 19.8756 72.7018 20.5581 71.0092 20.5581C69.9018 20.5581 68.9159 20.3291 68.0516 19.871C67.1872 19.413 66.512 18.7808 66.0258 17.9746V26H65.2965V5.41438H66.0258V8.0666C66.53 7.12297 67.2097 6.39922 68.0651 5.89535C68.9204 5.39147 69.8928 5.13953 70.9822 5.13953C72.6928 5.13953 74.0388 5.80832 75.0202 7.14588C76.0016 8.47428 76.4923 10.3432 76.4923 12.7526V12.9863ZM75.7495 12.6977C75.7495 10.5631 75.3308 8.8957 74.4935 7.69556C73.6652 6.48626 72.4993 5.88161 70.9957 5.88161C69.7712 5.88161 68.7313 6.20684 67.876 6.85729C67.0207 7.49859 66.4039 8.42389 66.0258 9.63319V16.5867C66.4039 17.6128 67.0207 18.4098 67.876 18.9778C68.7403 19.5366 69.7892 19.8161 71.0227 19.8161C72.5173 19.8161 73.6787 19.2114 74.507 18.0021C75.3353 16.7928 75.7495 15.0247 75.7495 12.6977Z" fill="white"/>
<path d="M90.2675 20.2833V17.8784C89.8354 18.703 89.2051 19.358 88.3768 19.8436C87.5485 20.3199 86.4996 20.5581 85.2301 20.5581C83.6365 20.5581 82.439 20.0863 81.6377 19.1427C80.8454 18.1899 80.4403 16.8066 80.4223 14.9926V5.41438H81.1516V15.0201C81.1696 16.5958 81.5207 17.7914 82.205 18.6068C82.8892 19.413 83.8886 19.8161 85.2031 19.8161C86.5986 19.8161 87.7331 19.4817 88.6064 18.8129C89.4797 18.1441 90.0334 17.1638 90.2675 15.8721V5.41438H91.0103V20.2833H90.2675Z" fill="white"/>
<path d="M97.2632 1.40169V5.41438H100.585V6.17019H97.2632V16.7241C97.2632 17.7777 97.4297 18.5564 97.7629 19.0603C98.105 19.5641 98.6722 19.8161 99.4645 19.8161C99.8607 19.8161 100.342 19.7748 100.91 19.6924L101.031 20.3932C100.734 20.5032 100.225 20.5581 99.505 20.5581C98.4426 20.5581 97.6818 20.2604 97.2227 19.6649C96.7635 19.0603 96.5294 18.1121 96.5204 16.8203V6.17019H93.8194V5.41438H96.5204V1.40169H97.2632Z" fill="white"/>
<path d="M113.82 20.2833C113.64 19.6512 113.55 18.7442 113.55 17.5624C112.974 18.5152 112.186 19.2526 111.187 19.7748C110.188 20.297 109.058 20.5581 107.797 20.5581C106.447 20.5581 105.357 20.1871 104.529 19.445C103.71 18.6938 103.3 17.7181 103.3 16.518C103.3 15.1529 103.903 14.0627 105.11 13.2474C106.325 12.4228 107.937 12.0014 109.945 11.9831H113.55V9.81184C113.55 8.56589 113.163 7.59937 112.389 6.91226C111.624 6.22516 110.525 5.88161 109.094 5.88161C107.761 5.88161 106.649 6.22974 105.758 6.926C104.867 7.62227 104.421 8.48344 104.421 9.50951L103.692 9.48203C103.692 8.27273 104.214 7.24665 105.258 6.40381C106.303 5.56096 107.581 5.13953 109.094 5.13953C110.669 5.13953 111.921 5.54264 112.848 6.34884C113.775 7.14588 114.253 8.27273 114.28 9.72939V16.834C114.28 18.4648 114.406 19.5733 114.658 20.1596V20.2833H113.82ZM107.797 19.8298C109.166 19.8298 110.341 19.5183 111.322 18.8953C112.312 18.2724 113.055 17.3975 113.55 16.2706V12.7389H110.174C108.085 12.7389 106.487 13.1603 105.38 14.0032C104.479 14.6903 104.029 15.5469 104.029 16.5729C104.029 17.4799 104.385 18.2495 105.096 18.8816C105.807 19.5137 106.708 19.8298 107.797 19.8298Z" fill="white"/>
<path d="M120.627 1.40169V5.41438H123.949V6.17019H120.627V16.7241C120.627 17.7777 120.794 18.5564 121.127 19.0603C121.469 19.5641 122.036 19.8161 122.828 19.8161C123.225 19.8161 123.706 19.7748 124.273 19.6924L124.395 20.3932C124.098 20.5032 123.589 20.5581 122.869 20.5581C121.807 20.5581 121.046 20.2604 120.587 19.6649C120.127 19.0603 119.893 18.1121 119.884 16.8203V6.17019H117.183V5.41438H119.884V1.40169H120.627Z" fill="white"/>
<path d="M128.649 20.2833H127.92V5.41438H128.649V20.2833ZM127.542 0.769556C127.542 0.558844 127.614 0.380197 127.758 0.233615C127.902 0.0778717 128.077 0 128.284 0C128.492 0 128.667 0.0778717 128.811 0.233615C128.964 0.380197 129.041 0.558844 129.041 0.769556C129.041 0.980268 128.964 1.15891 128.811 1.3055C128.667 1.45208 128.492 1.52537 128.284 1.52537C128.077 1.52537 127.902 1.45208 127.758 1.3055C127.614 1.15891 127.542 0.980268 127.542 0.769556Z" fill="white"/>
<path d="M132.336 12.5603C132.336 11.1402 132.602 9.86681 133.133 8.73996C133.673 7.60395 134.429 6.71987 135.402 6.08774C136.383 5.4556 137.491 5.13953 138.724 5.13953C139.948 5.13953 141.047 5.44644 142.019 6.06025C142.992 6.67407 143.748 7.5444 144.288 8.67125C144.837 9.7981 145.116 11.0669 145.125 12.4778V13.1374C145.125 14.5666 144.86 15.8446 144.329 16.9715C143.797 18.0983 143.041 18.9778 142.06 19.6099C141.087 20.2421 139.984 20.5581 138.751 20.5581C137.518 20.5581 136.41 20.2467 135.429 19.6237C134.456 19.0007 133.7 18.1304 133.16 17.0127C132.62 15.8858 132.345 14.6216 132.336 13.2199V12.5603ZM133.065 13.1374C133.065 14.3742 133.304 15.5102 133.781 16.5455C134.267 17.5715 134.938 18.3731 135.793 18.9503C136.658 19.5275 137.644 19.8161 138.751 19.8161C140.417 19.8161 141.772 19.1794 142.816 17.9059C143.869 16.6325 144.396 14.9926 144.396 12.9863V12.5603C144.396 11.3418 144.153 10.2149 143.667 9.1797C143.181 8.14447 142.505 7.33827 141.641 6.7611C140.786 6.17477 139.813 5.88161 138.724 5.88161C137.058 5.88161 135.699 6.52748 134.645 7.81924C133.592 9.11099 133.065 10.7371 133.065 12.6977V13.1374Z" fill="white"/>
<path d="M149.407 8.87738C149.884 7.72304 150.586 6.81149 151.513 6.14271C152.441 5.47393 153.467 5.13953 154.593 5.13953C156.159 5.13953 157.321 5.59302 158.077 6.5C158.842 7.39782 159.229 8.75828 159.238 10.5814V20.2833H158.509V10.5539C158.5 8.95983 158.18 7.78259 157.55 7.0222C156.92 6.25264 155.921 5.86786 154.552 5.86786C153.292 5.86786 152.198 6.32593 151.27 7.24207C150.352 8.14905 149.731 9.3217 149.407 10.76V20.2833H148.677V5.41438H149.407V8.87738Z" fill="white"/>
</svg>
